<?xml version="1.0" encoding="UTF-8"?><svg id="Layer_1" xmlns="http://www.w3.org/2000/svg" viewBox="0 0 252.83 134.32"><defs><style>.cls-1{fill:#eae9e6;}</style></defs><path class="cls-1" d="M35.72,115.46v.42c.31-.01,.62,.04,.91,.15,.22,.09,.41,.25,.52,.46,.13,.24,.21,.51,.23,.78v15.07c-.02,.27-.1,.54-.23,.78-.12,.21-.3,.37-.52,.46-.29,.11-.6,.16-.91,.15v.42h8.61c.73,.02,1.46-.1,2.14-.37,1.12-.43,1.97-1.36,2.3-2.52,.18-.61,.26-1.25,.26-1.89,0-.55-.06-1.1-.2-1.64-.12-.49-.32-.96-.6-1.38-.29-.39-.64-.73-1.05-1-.47-.29-.99-.5-1.54-.61,.46-.15,.88-.38,1.26-.68,.35-.28,.63-.62,.85-1,.22-.41,.38-.84,.48-1.29,.1-.49,.15-.99,.15-1.49,0-.64-.08-1.28-.26-1.89-.16-.56-.44-1.08-.82-1.52-.4-.44-.9-.78-1.46-1-.68-.26-1.41-.39-2.14-.37l-7.98-.04Zm10.3,10.55c1.64,1.9,1.64,4.72,0,6.62-1.02,.77-2.29,1.14-3.56,1.05h-1.73c-.31,.02-.62-.04-.91-.16-.22-.09-.4-.26-.52-.47-.13-.24-.21-.5-.23-.77-.02-.36-.02-.73,0-1.09v-5.53c-.05-.34,.19-.65,.53-.7h2.89c1.26-.08,2.52,.29,3.53,1.05m-6.27-1.46c-.34,.06-.66-.16-.72-.5,0-.01,0-.03,0-.04-.01-.06-.01-.11,0-.17v-5.53c-.02-.37-.02-.73,0-1.1,.02-.27,.1-.53,.23-.77,.12-.2,.3-.37,.52-.46,.28-.12,.59-.17,.9-.16h1.06c1.27-.1,2.53,.26,3.56,1,1.64,1.9,1.64,4.72,0,6.62-1.02,.75-2.28,1.11-3.55,1l-1.99,.11Zm16.53-8.43c-1.01,.46-1.9,1.14-2.6,2-.71,.88-1.23,1.9-1.53,3-.64,2.44-.64,4.99,0,7.43,.29,1.1,.81,2.12,1.53,3,.7,.84,1.59,1.51,2.6,1.95,2.37,.94,5.01,.94,7.38,0,1-.44,1.89-1.11,2.6-1.95,.72-.88,1.24-1.9,1.53-3,.64-2.44,.64-4.99,0-7.43-.3-1.1-.82-2.12-1.53-3-.7-.86-1.59-1.54-2.6-2-2.37-.94-5.01-.94-7.38,0m9.86,11.89c-.19,1.01-.55,1.98-1.07,2.87-.49,.84-1.18,1.55-2,2.07-.95,.56-2.03,.84-3.13,.8-.75,.02-1.5-.11-2.2-.37-.62-.22-1.2-.56-1.69-1-.48-.43-.9-.94-1.22-1.5-.34-.59-.61-1.22-.81-1.87-.21-.67-.36-1.36-.44-2.06-.09-.7-.14-1.41-.14-2.12,0-1.07,.11-2.13,.31-3.18,.19-1.01,.55-1.98,1.07-2.87,.49-.84,1.18-1.55,2-2.07,1.94-1.06,4.3-1.06,6.24,0,.82,.52,1.51,1.23,2,2.07,.52,.89,.88,1.86,1.07,2.87,.39,2.1,.39,4.25,0,6.35m3.77-12.51v.42c.31-.01,.63,.04,.92,.15,.22,.09,.4,.25,.51,.46,.12,.24,.2,.51,.23,.78v15.07c-.02,.27-.1,.54-.23,.78-.11,.21-.29,.37-.51,.46-.29,.12-.61,.17-.92,.15v.42h6.58c1.29,.04,2.58-.22,3.76-.74,1.01-.45,1.89-1.13,2.58-2,.69-.89,1.19-1.91,1.48-3,.63-2.38,.63-4.89,0-7.27-.3-1.09-.8-2.1-1.48-3-.69-.86-1.57-1.55-2.58-2-1.19-.51-2.47-.76-3.76-.73l-6.58,.05Zm6.59,.42c2.03-.09,3.94,.92,5,2.65,.54,.88,.93,1.84,1.14,2.85,.25,1.13,.38,2.29,.37,3.45,0,1.15-.12,2.3-.37,3.43-.21,1-.6,1.96-1.14,2.83-.5,.8-1.19,1.46-2,1.93-.92,.51-1.95,.75-3,.71h-1.57c-.31,.02-.62-.04-.91-.16-.22-.09-.4-.25-.52-.46-.13-.24-.21-.5-.23-.77-.02-.37-.02-.73,0-1.1v-12.9c-.02-.37-.02-.73,0-1.1,.02-.27,.1-.54,.23-.78,.11-.22,.3-.39,.53-.48,.29-.11,.6-.16,.91-.15l1.56,.05Zm15,4.88l-2-3.06c-.2-.31-.35-.57-.47-.8-.1-.17-.16-.37-.18-.57,0-.14,.06-.27,.18-.35,.24-.08,.49-.12,.74-.11v-.42h-5v.42c.3,0,.59,.03,.88,.08,.3,.07,.58,.19,.84,.36,.31,.22,.6,.47,.86,.75,.37,.41,.7,.84,1,1.3l3.8,5.81v8.16c-.03,.27-.11,.53-.23,.77-.12,.21-.31,.36-.53,.45-.29,.12-.61,.17-.92,.15v.42h5v-.42c-.31,.02-.62-.03-.91-.15-.22-.09-.4-.25-.52-.45-.12-.24-.2-.5-.23-.77v-8.16l4-5.81c.28-.43,.59-.84,.92-1.23,.25-.28,.52-.54,.82-.77,.23-.18,.5-.31,.78-.39,.29-.07,.58-.1,.88-.1v-.42h-3.8v.42c.63,0,.92,.18,.89,.55-.2,.7-.54,1.34-1,1.9l-3.74,5.47c-.66-1-1.33-2-2-3m26.81-5.3v.49c.31-.01,.61,.04,.9,.15,.22,.09,.41,.25,.52,.46,.13,.24,.21,.51,.23,.78,.04,.37,.06,.73,.06,1.1v12.87c0,.37-.02,.73-.06,1.1-.02,.27-.1,.54-.23,.78-.11,.21-.3,.37-.52,.46-.29,.11-.59,.16-.9,.15v.42h8.6c.73,.02,1.46-.1,2.14-.37,1.13-.42,1.98-1.36,2.3-2.52,.18-.61,.27-1.25,.26-1.89,0-.55-.06-1.1-.19-1.64-.13-.49-.34-.95-.61-1.38-.27-.39-.61-.73-1-1-.47-.29-.99-.5-1.54-.61,.45-.15,.88-.38,1.25-.68,.35-.28,.63-.62,.85-1,.22-.4,.39-.84,.48-1.29,.11-.49,.17-.99,.16-1.49,0-.64-.08-1.28-.26-1.89-.17-.56-.45-1.08-.83-1.52-.4-.44-.9-.78-1.45-1-.68-.26-1.41-.39-2.14-.37l-8.02-.11Zm10.22,10.49c1.64,1.9,1.64,4.72,0,6.62-1.02,.77-2.29,1.14-3.57,1.05h-1.69c-.31,.02-.62-.04-.91-.16-.22-.09-.4-.26-.52-.47-.13-.24-.2-.5-.23-.77v-6.62c-.05-.34,.19-.65,.53-.7h2.83c1.27-.09,2.54,.29,3.56,1.05m-6.27-1.46c-.34,.05-.66-.19-.71-.54h0c-.01-.05-.01-.11,0-.16v-6.63c.02-.27,.1-.53,.23-.77,.12-.2,.3-.37,.52-.46,.29-.12,.6-.17,.91-.16h1.06c1.27-.1,2.53,.26,3.56,1,1.62,1.91,1.62,4.71,0,6.62-1.03,.75-2.29,1.1-3.55,1l-2.02,.1Zm18.4-6.23c.07-.18,.17-.26,.3-.24,.13,.02,.24,.15,.33,.39l2.73,7v.21c0,.08,0,.16,0,.24,0,.07-.03,.13-.07,.19-.05,.05-.12,.08-.19,.07-.54-.04-1.09,.02-1.61,.19-.52,.18-1,.38-1.54,.61l-1.55,.71c-.51,.24-1.06,.4-1.62,.48-.15,0-.25,0-.28-.06-.02-.16,0-.32,.07-.46l3.43-9.33Zm3.65,8.46c.17,.08,.31,.22,.38,.4l1.56,4c.22,.5,.36,1.03,.4,1.57,.01,.25-.09,.5-.28,.67-.3,.19-.65,.27-1,.23v.42h5v-.42c-.27,0-.54-.07-.77-.22-.23-.15-.43-.34-.58-.57-.18-.23-.33-.49-.45-.76-.13-.27-.25-.55-.35-.84l-6.25-15.85h-.78l-5.66,15.81c-.16,.47-.36,.92-.59,1.35-.15,.28-.36,.54-.61,.74-.2,.17-.44,.28-.7,.32-.27,.06-.55,.08-.83,.08v.42h3.79v-.42c-.28,.02-.55-.04-.8-.17-.18-.14-.28-.36-.26-.59,.01-.24,.05-.48,.11-.71,.08-.28,.19-.61,.33-1l.6-1.66c.09-.22,.23-.41,.4-.57,.25-.18,.54-.29,.84-.34,.52-.1,1.03-.27,1.5-.51l1.47-.69c.47-.22,.96-.4,1.46-.56,.51-.15,1.03-.21,1.56-.17,.17,.03,.34,.09,.5,.16m20.82,7.32c0-.41,.08-.81,.11-1.21s.07-.8,.1-1.2h-.36c-.04,.59-.33,1.14-.81,1.49-.69,.39-1.49,.56-2.28,.5h-3.79c-.32,.02-.63-.04-.93-.15-.22-.09-.41-.25-.52-.46-.13-.24-.21-.51-.23-.78-.04-.37-.06-.73-.06-1.1v-12.94c0-.37,.02-.73,.06-1.1,.02-.27,.1-.54,.23-.78,.11-.21,.3-.37,.52-.46,.3-.11,.61-.16,.93-.15v-.42h-5v.42c.31-.01,.63,.04,.92,.15,.22,.09,.4,.25,.51,.46,.12,.24,.2,.51,.23,.78,0,.32,.05,.68,.05,1.1v12.87c.01,.37,0,.74-.05,1.1-.02,.27-.1,.54-.23,.78-.11,.21-.29,.37-.51,.46-.29,.11-.61,.17-.92,.15v.42l12.03,.07Zm10.64-15.78c.07-.18,.17-.26,.3-.24,.13,0,.24,.15,.32,.39l2.73,7v.42c0,.07-.03,.14-.08,.19-.05,.05-.11,.07-.18,.07-.54-.04-1.09,.02-1.61,.19-.52,.18-1,.38-1.54,.61l-1.56,.71c-.51,.24-1.05,.4-1.61,.48-.16,0-.25,0-.29-.06-.02-.16,0-.32,.08-.46l3.44-9.3Zm3.65,8.46c.17,.08,.3,.23,.37,.4l1.57,4c.22,.5,.35,1.03,.39,1.57,.02,.26-.08,.5-.28,.67-.3,.19-.65,.27-1,.23v.42h5v-.42c-.27,0-.54-.07-.77-.22-.23-.15-.43-.34-.59-.57-.17-.24-.32-.49-.45-.76-.13-.28-.24-.56-.34-.84l-6.22-15.86h-.77l-5.69,15.76c-.16,.47-.36,.92-.6,1.35-.15,.28-.36,.53-.6,.74-.2,.17-.44,.28-.7,.32-.28,.06-.56,.08-.84,.08v.42h3.8v-.42c-.28,.02-.55-.04-.8-.17-.19-.13-.29-.36-.26-.59,.01-.24,.05-.48,.11-.71,.08-.28,.19-.61,.33-1l.6-1.66c.07-.23,.19-.44,.36-.62,.26-.17,.55-.29,.85-.34,.52-.1,1.03-.27,1.5-.51l1.46-.69c.48-.21,.97-.4,1.47-.56,.51-.15,1.03-.21,1.56-.17,.17,.03,.34,.09,.5,.16m22.6,3.66c-.02,.09-.08,.16-.17,.18-.1,.02-.2-.01-.27-.08-.14-.12-.26-.26-.36-.41-1.77-2.47-3.52-4.93-5.25-7.38-1.73-2.45-3.49-4.92-5.27-7.39h-2.6v.42c.26,0,.53,.03,.78,.1,.21,.07,.39,.21,.52,.39,.15,.23,.24,.5,.28,.77,.07,.41,.1,.82,.09,1.23v12.87c.01,.41-.02,.82-.09,1.23-.04,.27-.13,.53-.28,.76-.13,.18-.31,.31-.52,.37-.25,.08-.52,.12-.78,.11v.42h3.77v-.42c-.26,0-.53-.03-.78-.11-.21-.06-.39-.19-.52-.37-.15-.23-.25-.49-.29-.76-.08-.41-.11-.82-.1-1.23v-12.14c0-.27,.08-.43,.24-.5s.39,.11,.68,.5l5.32,7.5,5.34,7.5h.73v-15.76c0-.42,.02-.83,.09-1.24,.04-.28,.14-.54,.3-.77,.13-.18,.31-.31,.52-.38,.25-.07,.52-.11,.78-.1v-.42h-3.8v.42c.27,0,.53,.03,.79,.1,.21,.07,.39,.2,.53,.38,.16,.23,.26,.49,.29,.77,.06,.41,.08,.83,.08,1.24v11.82c0,.12-.02,.24-.05,.35m8.31-14.37c-1.01,.46-1.9,1.14-2.6,2-.71,.88-1.23,1.9-1.53,3-.64,2.44-.64,4.99,0,7.43,.29,1.1,.81,2.12,1.53,3,.7,.86,1.59,1.54,2.6,2,1.17,.5,2.43,.74,3.7,.71,.87,.02,1.73-.13,2.54-.43,.69-.26,1.32-.66,1.85-1.17,.51-.5,.93-1.08,1.24-1.72,.33-.66,.58-1.35,.75-2.07h-.39c-.18,.67-.45,1.32-.78,1.93-.32,.59-.73,1.12-1.21,1.58-.49,.47-1.07,.83-1.71,1.07-1.45,.51-3.02,.51-4.47,0-.62-.22-1.19-.56-1.68-1-.49-.43-.9-.94-1.23-1.51-.34-.59-.61-1.22-.8-1.87-.2-.67-.35-1.36-.44-2.06-.17-1.4-.17-2.83,0-4.23,.09-.7,.24-1.39,.44-2.07,.2-.65,.46-1.27,.8-1.86,.33-.56,.74-1.07,1.23-1.51,.49-.43,1.06-.77,1.67-1,1.45-.51,3.03-.51,4.48,0,.63,.24,1.21,.61,1.71,1.07,.48,.46,.89,1,1.21,1.58,.33,.63,.59,1.29,.78,1.97h.42v-4.29h-.42c0,.15-.03,.3-.11,.43-.09,.13-.23,.21-.39,.21-.24,.01-.49-.03-.71-.13-.37-.14-.73-.33-1.06-.55-.53-.37-1.12-.65-1.75-.81-.63-.16-1.29-.24-1.94-.24-1.27-.02-2.53,.22-3.7,.71m12.67-.71v.38c.31-.01,.62,.04,.91,.15,.22,.09,.4,.25,.51,.46,.13,.24,.21,.51,.23,.78,.04,.37,.06,.73,.06,1.1v12.87c0,.37-.02,.73-.06,1.1-.02,.27-.1,.54-.23,.78-.11,.21-.29,.37-.51,.46-.29,.11-.6,.17-.91,.15v.42h12.09c.05-.41,.09-.81,.13-1.21s.08-.8,.1-1.2h-.33c-.04,.6-.34,1.14-.83,1.49-.69,.39-1.49,.56-2.28,.5h-3.8c-.31,.01-.62-.04-.91-.15-.22-.09-.4-.25-.52-.46-.13-.24-.21-.51-.23-.78v-6.63c-.05-.34,.19-.65,.53-.7h0c.06-.01,.12-.01,.18,0h3.44c.37,0,.73,.02,1.1,.06,.27,.02,.54,.1,.78,.23,.21,.12,.37,.3,.46,.52,.11,.29,.15,.6,.14,.91h.42v-3.85h-.48c.02,.31-.03,.63-.14,.92-.09,.22-.25,.4-.46,.51-.24,.13-.51,.21-.78,.23-.36,.05-.73,.07-1.1,.06h-3.44c-.34,.05-.66-.19-.71-.54h0c-.01-.05-.01-.11,0-.16v-6.62c.02-.27,.1-.53,.23-.77,.12-.2,.3-.36,.52-.46,.28-.12,.58-.17,.88-.17h3.8c.79-.05,1.58,.12,2.28,.5,.49,.35,.79,.89,.83,1.49h.41c-.01-.4-.05-.8-.1-1.2,0-.39-.08-.8-.13-1.21l-12.08,.04Z"/><path class="cls-1" d="M106.71,130.53c-.62-.6-.96-1.44-.92-2.3,0-.46,.09-.92,.29-1.33,.18-.35,.44-.65,.76-.88,.34-.23,.72-.39,1.12-.48,.44-.1,.89-.15,1.34-.15v-.29c-1.14,0-2.16-.69-2.57-1.75-.15-.38-.23-.8-.22-1.21,0-.41,.06-.83,.19-1.22,.11-.37,.3-.71,.55-1,.23-.27,.52-.48,.85-.62,.35-.15,.73-.23,1.11-.23,.48-.02,.96,.08,1.39,.29,.3,.17,.56,.42,.75,.71,.25,.28,.23,.71-.04,.96-.02,.01-.03,.03-.05,.04-.07,.1-.12,.21-.14,.33-.03,.27,.12,.53,.37,.64,.13,.07,.29,.07,.42,0,.13-.07,.23-.18,.27-.32,.05-.14,.05-.28,0-.42-.14-.72-.51-1.36-1.06-1.84-.61-.44-1.36-.66-2.11-.63-.52,0-1.05,.07-1.55,.21-.43,.13-.84,.34-1.19,.62-.34,.26-.6,.61-.77,1-.19,.45-.28,.94-.27,1.43,0,.39,.07,.77,.21,1.13,.13,.34,.31,.65,.54,.93,.2,.26,.45,.47,.73,.63,.23,.14,.5,.22,.77,.23-.32,.01-.63,.09-.92,.23-.36,.16-.7,.38-1,.64-.31,.29-.57,.63-.77,1-.21,.4-.32,.84-.31,1.29-.01,.54,.11,1.07,.35,1.55,.24,.43,.58,.8,1,1.06,.46,.3,.98,.51,1.52,.62,.63,.14,1.27,.21,1.91,.2,1.11,.07,2.21-.2,3.16-.79,.78-.63,1.19-1.6,1.1-2.6,0-.56-.1-1.12-.32-1.63-.2-.41-.52-.76-.91-1,.45-.17,.85-.45,1.17-.82,.27-.3,.44-.68,.48-1.08,.02-.22,.02-.43,0-.65-.02-.22-.07-.43-.13-.64-.04-.14-.12-.27-.23-.37-.11-.08-.24-.13-.38-.13-.15,0-.29,.07-.4,.18-.1,.12-.14,.27-.12,.42,.01,.24,.18,.45,.41,.52,.2,.07,.38,.16,.55,.28,.13,.11,.15,.29,0,.55-.13,.27-.36,.47-.64,.56-.39,.17-.78,.32-1.18,.45-.54,.15-1.04,.44-1.44,.83-.32,.32-.52,.74-.57,1.19-.02,.22-.02,.44,0,.66,.02,.22,.06,.43,.12,.64,.04,.14,.12,.27,.23,.36,.1,.1,.25,.14,.39,.12,.15,.01,.3-.05,.4-.17,.09-.12,.13-.26,.11-.41,0-.24-.17-.45-.41-.52l-.31-.12c-.08-.04-.16-.09-.23-.16-.06-.07-.09-.17-.09-.26-.03-.11-.03-.23,0-.34,.11-.22,.29-.4,.52-.49,.33-.15,.66-.28,1-.39,.37,.21,.69,.52,.91,.89,.64,1.27,.38,2.82-.65,3.81-.74,.6-1.68,.9-2.63,.84-.94,.06-1.87-.24-2.6-.84"/><path class="cls-1" d="M97.61,.01c-5.79-.15-13.13,1.08-22,3.69-6.11,1.88-12.12,4.08-18,6.59-6.55,2.78-12.93,5.91-19.14,9.38-6.1,3.39-11.99,7.15-17.63,11.25-5,3.59-9.56,7.75-13.58,12.4-3.72,4.36-6,8.51-6.84,12.45-1.91,8.72,2.97,15.65,14.66,20.78,4.02,1.62,8.15,2.96,12.36,4,3.13,.82,5.53,1.49,7.19,2,1.9,.62,3.77,1.35,5.59,2.18,1.65,.67,3.18,1.6,4.54,2.74-11.33,5.21-19.95,9.85-25.85,13.91-5.9,4.06-8.93,7.2-9.1,9.43,0,1.49,.93,2.35,2.9,2.57,.36,.08,.73,.12,1.1,.12,3.2,0,7.53-1.33,13-4,4.98-2.35,9.66-5.29,13.94-8.77,4.54-3.8,6.91-7.08,7.1-9.83,.03-1.03-.17-2.06-.59-3,11.08-4.98,24.18-10.23,39.31-15.75,.56-.22,.79-.57,.69-1.06s-.44-.61-1-.39c-15.2,5.54-28.51,10.92-39.93,16.13-1.28-1.37-2.85-2.46-4.58-3.19-1.89-.91-3.84-1.69-5.84-2.34-1.76-.56-4.34-1.32-7.75-2.29-4.16-1.07-8.26-2.38-12.27-3.91C4.85,70.18,.22,63.78,2.02,55.88c1.24-5.8,5.8-12.13,13.68-19,8.55-7.3,17.95-13.55,28-18.61,10.29-5.34,21.07-9.69,32.18-13,8.56-2.52,15.61-3.77,21.14-3.74s9.06,1.36,10.59,4c2.25,4.1-.41,11.06-8,20.88,.43-1.97,.67-3.98,.73-6,0-.52-.25-.74-.78-.67-.47,.02-.84,.42-.83,.89h0c-.13,2.96-.71,5.88-1.71,8.67-.08,.25,0,.51,.21,.67v.11h.11c.23,.24,.61,.25,.85,.02,.07-.07,.12-.15,.15-.24,9.85-11.84,13.36-20.26,10.52-25.25C107.14,1.71,103.39,.18,97.61,.01M39.82,99.67c-4.39,3.61-9.24,6.62-14.42,8.94-5.51,2.54-9.58,3.66-12.21,3.35-1.23-.22-1.82-.63-1.79-1.23,.13-.75,.48-1.44,1-2,1.02-1.2,2.17-2.28,3.42-3.24,1.98-1.57,4.05-3.03,6.2-4.36,2.47-1.56,5.76-3.44,9.88-5.64,4.12-2.2,8.72-4.45,13.81-6.76,.45,.69,.66,1.52,.59,2.34-.18,2.32-2.32,5.19-6.43,8.6m94.15-28.93c-16,6.94-28.67,10.44-38,10.5,1.33-3.33,1.5-6.16,.49-8.49-.93-2.31-2.82-3.42-5.66-3.35-1.54-.02-3.07,.35-4.44,1.06-1.26,.64-2.3,1.63-3,2.85-1.21,1.92-.9,4.43,.73,6,1.82,1.94,5.01,3.06,9.57,3.35-.43,.75-.84,1.42-1.25,2-2.55,3.51-5.65,5.25-9.3,5.25-1.71,0-2.76-.59-3.15-1.78-.59-1.71,.58-4.1,3.5-7.15,.37-.45,.38-.82,0-1.12-.28-.27-.72-.27-1,0l-.08,.09c-3.39,3.58-4.73,6.52-4,8.83,.58,1.8,2.06,2.69,4.44,2.68h.15c4.18-.08,7.74-2.08,10.67-6,.58-.86,1.11-1.76,1.59-2.68h.44c9.39,0,22.26-3.54,38.63-10.62,.44-.15,.69-.61,.57-1.06-.1-.48-.43-.61-1-.39m-48.41,7.4c-1.22-1.07-1.47-2.88-.59-4.24,1-1.94,2.89-2.9,5.65-2.9h.11c1.85-.18,3.6,.86,4.34,2.56,.91,2,.71,4.57-.58,7.71-4.35-.22-7.33-1.26-8.94-3.13m93.12-7.37c-.5,.3-1.5,1-3,2-15.08,9.46-24.56,13.79-28.43,13-.53-.13-1.02-.4-1.42-.78-.42-.45-.71-1.01-.83-1.62-.16-.6-.26-1.22-.29-1.84v-2.24c.02-.93-.04-1.87-.18-2.79,0-1.07-.69-2.02-1.71-2.35-1.26-.4-2.65-.15-3.69,.67-2.5,1.5-5.57,4.96-9.2,10.39,1.52-4,3.31-8.67,5.36-14,.18-.34,.05-.77-.3-.94-.05-.02-.09-.04-.14-.06-.46-.11-.92,.16-1.06,.61-4.67,12-7.17,18.82-7.52,20.45-.15,.44,0,.7,.42,.78,.05,.07,.13,.11,.21,.11,.34-.03,.64-.24,.77-.56,1.69-2.97,3.56-5.85,5.59-8.6,2.52-3.5,4.7-5.83,6.55-7,.63-.47,1.44-.63,2.2-.45,.57,.15,.89,.64,1,1.46,.09,.85,.13,1.71,.11,2.57,0,1,.08,1.86,.12,2.45,.07,.73,.18,1.46,.34,2.18,.14,.77,.53,1.47,1.1,2,.56,.52,1.25,.86,2,1,1.98,.34,4.02,.15,5.91-.56,2.95-.97,5.79-2.23,8.49-3.76,3.25-1.74,5.86-3.19,7.81-4.35,1.95-1.15,4.44-2.65,7.45-4.49,1.51-1,2.51-1.6,3-1.9s.64-.65,.41-1.06c-.18-.36-.61-.51-.98-.33-.03,.02-.06,.03-.09,.05m44.8,0c-.5,.3-1.52,1-3,2-15.07,9.49-24.53,13.82-28.4,13-.54-.13-1.03-.4-1.43-.78-.42-.45-.71-1.01-.83-1.62-.16-.6-.26-1.22-.29-1.84v-2.24c.02-.93-.04-1.87-.17-2.79,0-1.07-.69-2.02-1.71-2.35-1-.44-2.27-.22-3.7,.67-2.49,1.5-5.55,4.96-9.2,10.39,1.53-4,3.32-8.67,5.37-14,.18-.34,.04-.77-.3-.94-.05-.02-.1-.04-.15-.06-.46-.11-.92,.16-1.06,.61-4.67,12-7.17,18.82-7.51,20.45-.16,.44-.02,.7,.42,.78,.04,.07,.12,.11,.2,.11,.34-.03,.64-.24,.77-.56,1.69-2.97,3.56-5.85,5.59-8.6,2.52-3.5,4.7-5.83,6.55-7,.63-.47,1.44-.63,2.2-.45,.57,.15,.9,.64,1,1.46,.09,.85,.13,1.71,.11,2.57,0,1,.08,1.86,.12,2.45,.07,.73,.18,1.46,.35,2.18,.14,.77,.52,1.47,1.09,2,.56,.52,1.25,.86,2,1,1.98,.34,4.02,.15,5.9-.56,2.96-.96,5.82-2.22,8.54-3.74,3.25-1.74,5.85-3.19,7.8-4.35,1.95-1.16,4.41-2.68,7.39-4.56,1.51-1,2.51-1.6,3-1.9s.64-.65,.41-1.06c-.16-.36-.59-.53-.95-.36-.02,0-.03,.02-.05,.02l-.1,.06m28.14,0c-7.46,5.04-15.21,9.65-23.2,13.8-8.2,4.29-13.07,5.83-14.62,4.6-.66-.52-.41-1.9,.72-4.13,.29-.66,.62-1.29,1-1.9,.36,.31,.86,.4,1.3,.22,1.48-.37,3.4-2.08,5.77-5.13,2.37-3,3.68-5.32,3.93-6.82,.15-.82-.06-1.3-.63-1.45-1.22-.3-3.22,1.19-6,4.47-2.67,3.09-4.94,6.51-6.77,10.16-1.41,2.91-1.52,4.85-.35,5.81,.59,.48,1.35,.72,2.11,.67,1.71,0,4.22-.68,7.51-2.06,3.25-1.36,6.43-2.89,9.52-4.58,3.06-1.68,6.35-3.6,9.9-5.76s6-3.68,7.4-4.58,2.46-1.6,3.22-2.12c.5-.3,.62-.65,.36-1.06-.18-.31-.57-.42-.88-.25-.04,.02-.08,.05-.12,.08m-30,6.43c-2,2.64-3.59,4.18-4.79,4.63-.19,.09-.42,0-.5-.19h0c1.41-2.34,3.01-4.54,4.78-6.6,1.05-1.33,2.29-2.5,3.68-3.47-.2,1.12-1.29,3-3.28,5.65"/><path d="M35.71,115.46v.42c.31-.01,.61,.04,.9,.15,.22,.09,.41,.25,.53,.46,.12,.24,.2,.51,.23,.78v15.07c-.03,.27-.11,.54-.23,.78-.12,.21-.31,.38-.53,.47-.29,.1-.59,.15-.9,.14v.42h8.6c.73,.02,1.46-.11,2.15-.37,.56-.22,1.05-.56,1.46-1,.39-.44,.67-.96,.84-1.52,.18-.61,.26-1.25,.26-1.89,0-.55-.07-1.1-.2-1.64-.12-.49-.33-.95-.61-1.37-.26-.4-.6-.74-1-1-.47-.3-.99-.5-1.54-.61,.46-.15,.88-.38,1.26-.68,.34-.27,.63-.61,.84-1,.22-.4,.38-.84,.48-1.29,.11-.49,.16-1,.16-1.5,0-.64-.08-1.28-.26-1.89-.16-.56-.45-1.08-.83-1.52-.4-.44-.9-.78-1.45-1-.68-.27-1.41-.39-2.14-.37l-8.02-.04Zm10.31,10.6c1.64,1.9,1.64,4.72,0,6.62-1.03,.77-2.29,1.14-3.57,1.05h-1.74c-.31,.01-.62-.04-.9-.16-.22-.09-.41-.26-.52-.47-.13-.24-.21-.5-.23-.77-.04-.36-.06-.73-.06-1.09v-5.53c-.04-.34,.2-.65,.54-.69,.06,0,.12,0,.17,0h2.72c1.26-.1,2.52,.26,3.55,1m-6.27-1.46c-.34,.05-.66-.18-.71-.52,0-.06,0-.11,0-.17v-5.54c0-.37,.02-.73,.06-1.1,.02-.27,.1-.53,.23-.77,.12-.21,.3-.37,.52-.46,.28-.12,.59-.17,.9-.16h1.06c1.27-.1,2.53,.25,3.56,1,1.64,1.9,1.64,4.72,0,6.62-1.02,.75-2.28,1.1-3.55,1l-2.07,.1Zm16.53-8.43c-1.01,.46-1.9,1.14-2.6,2-.71,.88-1.24,1.9-1.53,3-.64,2.44-.64,5,0,7.44,.3,1.08,.82,2.08,1.53,2.95,.7,.84,1.59,1.51,2.6,1.95,2.37,.93,5.01,.93,7.38,0,1.01-.44,1.9-1.11,2.6-1.95,.71-.87,1.23-1.87,1.53-2.95,.64-2.44,.64-5,0-7.44-.29-1.1-.82-2.12-1.53-3-.7-.86-1.59-1.54-2.6-2-2.37-.95-5.01-.95-7.38,0m9.89,11.88c-.21,1-.58,1.96-1.11,2.83-.49,.84-1.18,1.55-2,2.08-.95,.56-2.03,.83-3.13,.79-.75,.01-1.5-.11-2.2-.37-.62-.22-1.2-.56-1.69-1-.48-.43-.9-.94-1.22-1.5-.33-.58-.58-1.19-.76-1.83-.21-.68-.36-1.37-.44-2.07-.09-.7-.14-1.4-.14-2.11,0-1.07,.11-2.14,.31-3.19,.19-1.01,.55-1.98,1.07-2.87,.49-.84,1.18-1.55,2-2.07,1.94-1.07,4.3-1.07,6.24,0,.82,.52,1.51,1.23,2,2.07,.52,.89,.88,1.86,1.07,2.87,.39,2.1,.39,4.25,0,6.35m3.77-12.51v.42c.31-.01,.63,.04,.92,.15,.22,.09,.39,.26,.51,.46,.13,.24,.21,.51,.23,.78,.02,.37,.02,.73,0,1.1v12.87c.02,.37,.02,.73,0,1.1-.02,.27-.1,.54-.23,.78-.12,.21-.29,.37-.51,.47-.3,.1-.61,.15-.92,.14v.42h6.59c1.29,.03,2.57-.22,3.76-.73,1-.46,1.88-1.14,2.57-2,.69-.89,1.19-1.91,1.48-3,.64-2.38,.64-4.89,0-7.27-.29-1.09-.79-2.11-1.48-3-.68-.86-1.57-1.55-2.57-2-1.19-.51-2.47-.76-3.76-.73l-6.59,.04Zm6.59,.42c2.03-.1,3.95,.91,5,2.65,.54,.88,.93,1.84,1.15,2.85,.25,1.13,.37,2.29,.36,3.45,0,1.15-.11,2.3-.36,3.43-.22,1-.61,1.96-1.15,2.83-.51,.79-1.19,1.45-2,1.93-.92,.5-1.95,.75-3,.71h-1.58c-.31,.01-.62-.04-.91-.16-.22-.09-.4-.25-.52-.46-.13-.24-.21-.5-.23-.77v-15.09c.02-.27,.1-.54,.23-.78,.12-.22,.31-.39,.54-.48,.29-.11,.6-.16,.91-.15l1.56,.04Zm15,4.88c-.66-1-1.32-2-2-3.06-.19-.3-.35-.57-.47-.8-.1-.18-.15-.37-.17-.57,0-.14,.08-.27,.21-.33,.24-.1,.49-.14,.75-.12v-.42h-5v.42c.29,0,.58,.03,.87,.08,.3,.07,.58,.19,.84,.36,.32,.21,.61,.47,.86,.76,.37,.4,.71,.83,1,1.29l3.79,5.81v7.06c0,.42,0,.78-.05,1.1-.02,.27-.1,.53-.23,.77-.11,.21-.3,.37-.52,.45-.3,.11-.61,.16-.93,.15v.42h5v-.42c-.31,.01-.63-.04-.92-.15-.22-.09-.4-.25-.51-.45-.13-.24-.21-.5-.23-.77-.04-.37-.06-.73-.05-1.1v-7.06l4-5.81c.28-.43,.59-.84,.93-1.23,.24-.29,.51-.54,.81-.77,.24-.18,.5-.31,.79-.38,.28-.07,.58-.11,.87-.11v-.42h-3.8v.42c.63,0,.93,.19,.89,.56-.2,.69-.54,1.34-1,1.89l-3.73,5.47c-.67-1-1.33-2-2-3m26.8-5.3v.42c.31-.01,.62,.04,.91,.15,.22,.09,.4,.25,.52,.46,.13,.24,.21,.51,.23,.78,.02,.37,.02,.73,0,1.1v12.87c.02,.37,.02,.73,0,1.1-.02,.27-.1,.54-.23,.78-.12,.21-.3,.38-.52,.47-.29,.1-.6,.15-.91,.14v.42h8.61c.73,.02,1.46-.1,2.14-.37,.56-.22,1.06-.56,1.47-1,.39-.44,.67-.96,.83-1.52,.18-.61,.27-1.25,.26-1.89,0-.55-.06-1.1-.2-1.64-.12-.49-.32-.95-.6-1.37-.26-.4-.6-.74-1-1-.47-.3-.99-.5-1.53-.61,.45-.15,.88-.38,1.25-.68,.34-.28,.63-.62,.85-1,.22-.4,.38-.84,.48-1.29,.11-.49,.16-1,.16-1.5,0-.64-.08-1.28-.26-1.89-.16-.56-.45-1.08-.83-1.52-.4-.44-.9-.78-1.45-1-.69-.26-1.42-.39-2.15-.37l-8.03-.04Zm10.28,10.6c.88,.87,1.32,2.08,1.22,3.31,.11,1.23-.34,2.45-1.23,3.31-1.03,.77-2.29,1.14-3.57,1.05h-1.69c-.31,.01-.62-.04-.91-.16-.22-.09-.4-.26-.52-.47-.13-.24-.2-.5-.23-.77v-6.68c-.04-.34,.2-.65,.54-.69,.06,0,.12,0,.17,0h2.67c1.27-.1,2.53,.26,3.56,1m-6.27-1.46c-.34,.05-.66-.18-.71-.52,0-.06,0-.11,0-.17v-6.64c.02-.27,.1-.53,.23-.77,.12-.2,.3-.37,.52-.46,.29-.12,.6-.17,.91-.16h1.06c1.26-.1,2.52,.25,3.55,1,1.63,1.91,1.63,4.71,0,6.62-1.03,.75-2.29,1.1-3.55,1l-2.01,.1Zm18.4-6.23c.07-.18,.17-.26,.3-.24,.14,0,.24,.15,.33,.39l2.73,7v.21c0,.08,0,.16,0,.24,0,.07-.03,.13-.07,.19-.05,.05-.12,.08-.19,.07-.54-.04-1.09,.02-1.61,.19-.52,.17-1.04,.38-1.54,.61l-1.55,.71c-.51,.24-1.06,.4-1.62,.48-.15,0-.25,0-.28-.06s0-.22,.07-.46l3.43-9.33Zm3.65,8.46c.17,.08,.31,.23,.38,.41l1.56,4c.22,.5,.36,1.03,.4,1.57,.01,.25-.09,.5-.28,.67-.3,.19-.65,.27-1,.23v.42h5v-.42c-.27,0-.54-.07-.77-.22-.23-.15-.42-.34-.58-.56-.18-.24-.33-.5-.45-.77-.13-.28-.25-.56-.35-.84l-6.21-15.86h-.77l-5.7,15.76c-.16,.46-.36,.91-.59,1.35-.15,.29-.36,.54-.61,.74-.2,.16-.44,.28-.7,.33-.27,.05-.55,.07-.83,.07v.42h3.79v-.42c-.28,.02-.55-.04-.8-.17-.18-.13-.28-.35-.26-.58,0-.24,.04-.49,.11-.72,.08-.27,.19-.62,.33-1l.6-1.66c.07-.23,.2-.45,.37-.62,.25-.17,.54-.29,.84-.34,.52-.1,1.03-.27,1.51-.5l1.46-.7c.48-.22,.97-.41,1.47-.56,.5-.16,1.03-.22,1.55-.17,.17,.03,.34,.08,.5,.16m20.82,7.32l.12-1.2,.09-1.21h-.34c-.04,.59-.33,1.14-.81,1.49-.69,.39-1.48,.56-2.27,.5h-3.8c-.32,.01-.63-.04-.93-.14-.22-.09-.4-.26-.52-.47-.13-.24-.21-.51-.23-.78-.02-.37-.02-.73,0-1.1v-12.85c-.02-.37-.02-.73,0-1.1,.03-.27,.1-.54,.23-.78,.12-.21,.3-.37,.52-.46,.3-.11,.61-.16,.93-.15v-.42h-5v.42c.31-.01,.63,.04,.92,.15,.22,.09,.39,.26,.51,.46,.13,.24,.2,.51,.23,.78,0,.32,.05,.69,.05,1.1v12.87c0,.42,0,.78-.05,1.1-.02,.27-.1,.54-.23,.78-.12,.21-.29,.37-.51,.47-.3,.1-.61,.15-.92,.14v.42l12.01-.02Zm10.64-15.78c.07-.18,.17-.26,.31-.24s.23,.15,.32,.39l2.73,7c0,.07,0,.14,0,.21,.01,.08,.01,.16,0,.24,0,.07-.02,.14-.07,.19-.05,.05-.12,.08-.19,.07-.54-.04-1.08,.02-1.6,.19-.53,.17-1.05,.38-1.55,.61l-1.55,.71c-.51,.24-1.06,.4-1.62,.48-.15,0-.25,0-.28-.06-.02-.16,0-.32,.07-.46l3.43-9.33Zm3.65,8.46c.18,.08,.31,.23,.38,.41l1.56,4c.22,.5,.36,1.03,.4,1.57,.02,.26-.09,.5-.28,.67-.3,.19-.65,.27-1,.23v.42h5v-.42c-.28,0-.55-.07-.78-.22-.22-.15-.42-.34-.58-.56-.18-.24-.33-.5-.45-.77-.13-.27-.24-.55-.34-.84l-6.22-15.86h-.77l-5.7,15.76c-.16,.47-.36,.92-.59,1.35-.15,.29-.36,.54-.61,.74-.2,.17-.44,.28-.7,.33-.27,.05-.55,.07-.83,.07v.42h3.8v-.42c-.28,.02-.56-.04-.81-.17-.18-.13-.28-.35-.26-.58,0-.24,.05-.49,.12-.72,.07-.27,.18-.62,.32-1l.6-1.66c.07-.23,.2-.45,.37-.62,.26-.17,.55-.29,.85-.34,.52-.1,1.02-.27,1.5-.5l1.46-.7c.48-.22,.97-.41,1.47-.56,.5-.16,1.03-.22,1.55-.17,.17,.03,.34,.08,.5,.16m22.63,3.72c-.02,.08-.09,.15-.17,.18-.1,.01-.2-.02-.27-.09-.14-.12-.26-.26-.36-.41-1.77-2.47-3.52-4.93-5.25-7.38-1.73-2.45-3.48-4.92-5.27-7.39h-2.61v.42c.27,0,.53,.03,.79,.11,.21,.07,.39,.2,.52,.38,.15,.23,.24,.5,.28,.77,.06,.41,.08,.82,.08,1.23v12.87c0,.41-.02,.82-.08,1.23-.04,.27-.13,.53-.28,.76-.13,.18-.31,.31-.52,.38-.26,.07-.52,.11-.79,.1v.42h3.78v-.42c-.26,0-.53-.03-.78-.1-.21-.07-.39-.2-.52-.38-.16-.23-.26-.49-.3-.76-.07-.41-.1-.82-.09-1.23v-12.11c0-.27,.08-.43,.24-.49s.38,.1,.68,.49l5.32,7.5c1.76,2.49,3.54,4.99,5.34,7.5h.73v-15.76c0-.42,.02-.83,.09-1.24,.04-.27,.14-.54,.29-.77,.13-.18,.32-.31,.53-.37,.25-.08,.52-.12,.78-.11v-.42h-3.8v.42c.26,0,.53,.03,.78,.11,.21,.06,.4,.19,.54,.37,.16,.23,.26,.49,.29,.77,.06,.41,.08,.83,.08,1.24v11.82c.02,.12,.02,.24,0,.36m8.31-14.38c-1.01,.46-1.9,1.14-2.6,2-.71,.88-1.24,1.9-1.53,3-.64,2.44-.64,5,0,7.44,.3,1.08,.82,2.08,1.53,2.95,.7,.86,1.59,1.54,2.6,2,1.17,.5,2.43,.74,3.7,.71,.87,.02,1.73-.13,2.54-.43,.69-.26,1.32-.66,1.85-1.17,.51-.5,.93-1.08,1.24-1.72,.32-.66,.57-1.35,.75-2.06h-.42c-.19,.67-.45,1.31-.78,1.92-.32,.59-.73,1.12-1.21,1.59-.49,.46-1.08,.82-1.71,1.06-1.45,.51-3.02,.51-4.47,0-.62-.22-1.19-.56-1.68-1-.49-.44-.9-.95-1.23-1.51-.34-.59-.6-1.21-.8-1.86-.2-.68-.35-1.37-.44-2.07-.17-1.4-.17-2.83,0-4.23,.09-.7,.24-1.39,.44-2.06,.19-.65,.46-1.28,.8-1.87,.33-.56,.74-1.07,1.23-1.51,.49-.43,1.06-.77,1.67-1,.71-.26,1.46-.39,2.22-.37,.77-.01,1.54,.12,2.26,.39,.63,.24,1.22,.6,1.71,1.07,.48,.46,.89,.99,1.21,1.58,.33,.61,.6,1.26,.78,1.93h.42v-4.3h-.42c0,.15-.03,.3-.11,.43-.09,.13-.23,.2-.39,.21-.24,.01-.49-.03-.71-.13-.37-.14-.73-.33-1.06-.55-.53-.37-1.12-.65-1.75-.81-.63-.16-1.29-.24-1.94-.24-1.27-.03-2.53,.21-3.7,.71m12.67-.71v.42c.31-.01,.63,.04,.92,.15,.22,.09,.39,.26,.51,.46,.12,.24,.2,.51,.23,.78,0,.32,.05,.69,.05,1.1v12.87c0,.42,0,.78-.05,1.1-.03,.27-.11,.54-.23,.78-.12,.21-.29,.37-.51,.47-.3,.1-.61,.15-.92,.14v.42h12.1l.12-1.2c0-.4,.08-.8,.11-1.21h-.37c-.04,.59-.34,1.14-.82,1.49-.7,.38-1.49,.56-2.29,.5h-3.79c-.31,0-.62-.04-.91-.14-.22-.09-.41-.26-.52-.47-.13-.24-.21-.51-.23-.78-.04-.37-.06-.73-.06-1.1v-5.63c-.04-.34,.2-.65,.54-.69,.06,0,.12,0,.17,0h3.45c.36-.02,.73-.02,1.09,0,.27,.02,.54,.1,.78,.23,.21,.12,.37,.3,.46,.52,.11,.29,.16,.6,.15,.91h.41v-3.85h-.43c.01,.31-.04,.63-.15,.92-.09,.22-.25,.4-.46,.51-.24,.13-.51,.21-.78,.23-.36,.04-.73,.06-1.09,.06h-3.45c-.34,.05-.66-.18-.71-.52,0-.06,0-.11,0-.17v-5.54c0-.37,.02-.73,.06-1.1,.02-.27,.1-.53,.23-.77,.12-.21,.3-.37,.52-.46,.29-.12,.6-.17,.91-.16h3.79c.8-.06,1.59,.12,2.29,.5,.48,.35,.78,.9,.82,1.49h.42c0-.4-.07-.81-.11-1.2l-.12-1.21-12.13,.15Z"/><path d="M106.71,130.53c-.63-.59-.97-1.43-.92-2.3-.02-.46,.08-.92,.29-1.33,.17-.35,.44-.65,.76-.87,.33-.23,.71-.4,1.11-.49,.44-.1,.9-.15,1.35-.15v-.29c-.37,0-.74-.07-1.08-.21-.34-.14-.64-.35-.89-.61-.26-.27-.46-.58-.6-.93-.15-.38-.23-.8-.22-1.21,0-.41,.06-.83,.19-1.22,.11-.37,.29-.71,.54-1,.24-.26,.53-.48,.85-.62,.35-.15,.74-.23,1.12-.22,.48-.03,.96,.07,1.39,.28,.3,.18,.56,.42,.75,.71,.11,.17,.17,.37,.17,.57-.04,.17-.13,.31-.26,.43-.07,.1-.12,.21-.14,.33-.02,.12,0,.24,.05,.35,.06,.13,.18,.24,.32,.29,.13,.07,.29,.07,.42,0,.13-.07,.23-.18,.27-.32,.04-.14,.04-.28,0-.42-.13-.72-.51-1.37-1.07-1.83-.61-.45-1.35-.67-2.1-.64-.52,0-1.05,.06-1.55,.21-.44,.13-.84,.34-1.2,.62-.33,.27-.59,.61-.77,1-.19,.45-.28,.94-.27,1.43,0,.39,.07,.77,.21,1.13,.14,.33,.32,.65,.55,.93,.2,.25,.45,.47,.73,.63,.23,.14,.5,.22,.77,.23-.32,.01-.63,.09-.92,.23-.37,.16-.71,.38-1,.65-.31,.28-.58,.62-.77,1-.21,.39-.32,.83-.32,1.28-.02,.54,.11,1.07,.36,1.55,.24,.43,.58,.8,1,1.07,.47,.29,.98,.5,1.52,.62,.63,.14,1.27,.2,1.91,.2,1.11,.07,2.22-.21,3.16-.8,.77-.63,1.19-1.6,1.1-2.59,.01-.56-.1-1.12-.32-1.64-.2-.42-.52-.77-.92-1,.45-.18,.86-.46,1.18-.82,.26-.3,.43-.67,.48-1.07,.02-.22,.02-.44,0-.66-.02-.22-.07-.43-.13-.64-.04-.14-.12-.27-.23-.36-.11-.09-.25-.14-.39-.14-.15,0-.29,.07-.39,.19-.1,.11-.14,.26-.12,.41,.01,.24,.18,.45,.41,.52,.2,.06,.38,.15,.54,.28,.14,.11,.16,.3,0,.55-.13,.26-.36,.46-.64,.56-.38,.18-.78,.33-1.18,.45-.54,.15-1.04,.43-1.44,.83-.32,.32-.52,.75-.57,1.2-.02,.22-.02,.43,0,.65,.02,.22,.06,.43,.12,.64,.04,.14,.12,.27,.23,.36,.11,.09,.25,.14,.39,.13,.15,0,.3-.06,.39-.18,.1-.11,.14-.26,.12-.41-.01-.24-.18-.45-.41-.52l-.31-.12c-.09-.03-.17-.09-.23-.16-.06-.06-.1-.14-.11-.23-.03-.11-.03-.23,0-.34,.11-.22,.29-.39,.52-.48,.32-.16,.66-.29,1-.39,.38,.21,.69,.52,.91,.89,.63,1.26,.39,2.79-.6,3.8-.74,.6-1.68,.89-2.63,.84-.94,.06-1.87-.24-2.6-.84"/><path d="M97.6,.01c-5.78-.15-13.11,1.07-22,3.68-6.11,1.88-12.12,4.09-18,6.6-6.55,2.77-12.94,5.9-19.14,9.38-6.11,3.38-12,7.13-17.64,11.24-5,3.59-9.55,7.75-13.58,12.4-3.71,4.36-5.99,8.51-6.84,12.46-1.91,8.71,2.96,15.64,14.62,20.78,4.02,1.61,8.15,2.95,12.36,4,3.14,.82,5.53,1.49,7.19,2,1.9,.62,3.77,1.34,5.59,2.18,1.65,.67,3.19,1.59,4.55,2.74-11.33,5.21-19.95,9.85-25.86,13.9-5.91,4.05-8.94,7.2-9.09,9.45,0,1.48,.92,2.34,2.89,2.56,.36,.08,.73,.12,1.1,.12,3.2,0,7.53-1.33,13-4,5.01-2.34,9.71-5.29,14-8.77,4.54-3.8,6.91-7.08,7.1-9.83,.03-1.03-.17-2.06-.59-3,11.08-4.99,24.18-10.24,39.31-15.75,.56-.22,.79-.58,.69-1.06s-.43-.62-1-.39c-15.21,5.54-28.52,10.92-39.94,16.13-1.28-1.38-2.84-2.46-4.58-3.19-1.89-.91-3.84-1.69-5.84-2.35-1.77-.55-4.35-1.28-7.75-2.28-4.16-1.07-8.26-2.37-12.27-3.91C4.83,70.19,.19,63.78,1.95,55.88c1.25-5.81,5.81-12.14,13.68-19,8.55-7.3,17.95-13.55,28-18.61,10.29-5.34,21.07-9.7,32.18-13,8.55-2.53,15.58-3.77,21.08-3.74,5.5,0,9,1.36,10.58,4,2.26,4.1-.41,11.06-8,20.89,.44-1.97,.68-3.98,.73-6,0-.52-.24-.74-.77-.67-.47,.01-.84,.4-.83,.87v.02c-.1,2.95-.63,5.86-1.58,8.65-.07,.25,.02,.51,.22,.67v.11h.11c.39,.3,.74,.22,1-.22,9.84-11.85,13.34-20.27,10.49-25.25C107.14,1.69,103.39,.16,97.6,.01M39.81,99.67c-4.39,3.61-9.24,6.61-14.43,8.94-5.51,2.53-9.58,3.67-12.21,3.4-1.22-.22-1.82-.63-1.79-1.23,.13-.75,.48-1.44,1-2,1.02-1.2,2.17-2.28,3.42-3.24,1.98-1.57,4.04-3.02,6.19-4.35,2.47-1.57,5.76-3.46,9.87-5.65,4.11-2.19,8.72-4.44,13.82-6.75,.45,.69,.66,1.52,.59,2.34-.18,2.31-2.32,5.18-6.43,8.6m94.14-28.93c-15.97,6.88-28.63,10.36-37.96,10.44,1.34-3.35,1.5-6.18,.5-8.49s-2.83-3.43-5.67-3.35c-1.54-.03-3.07,.34-4.43,1.06-1.26,.63-2.3,1.63-3,2.85-1.21,1.92-.91,4.42,.72,6,1.82,1.94,5.01,3.06,9.58,3.35-.43,.75-.85,1.42-1.25,2-2.56,3.5-5.66,5.25-9.31,5.25-1.71,0-2.76-.59-3.15-1.78-.59-1.72,.58-4.1,3.5-7.15,.38-.45,.39-.82,0-1.12-.28-.27-.73-.27-1,.02-.03,.03-.05,.06-.08,.09-3.39,3.58-4.73,6.52-4,8.83,.57,1.78,2.05,2.68,4.44,2.68h.15c4.18-.08,7.74-2.08,10.67-6,.59-.86,1.12-1.75,1.59-2.68h.45c9.38,0,22.26-3.54,38.63-10.61,.44-.15,.69-.61,.57-1.06-.1-.49-.43-.62-1-.39m-48.43,7.37c-1.21-1.07-1.47-2.87-.59-4.24,1.02-1.91,2.9-2.86,5.65-2.86h.12c1.84-.18,3.59,.83,4.34,2.52,.91,2,.71,4.57-.58,7.71-4.36-.22-7.36-1.26-9-3.13m93.14-7.37c-.5,.3-1.51,1-3,2-15.04,9.47-24.51,13.79-28.41,12.97-.53-.13-1.02-.4-1.42-.78-.42-.45-.71-1.01-.83-1.62-.16-.6-.26-1.22-.29-1.85v-2.23c.02-.94-.04-1.87-.18-2.8,0-1.07-.69-2.01-1.71-2.34-1-.45-2.27-.22-3.69,.67-2.5,1.49-5.57,4.95-9.2,10.39,1.52-4,3.31-8.67,5.36-14,.17-.52,0-.83-.44-.94s-.82,.09-1.06,.61c-4.67,12-7.17,18.82-7.52,20.45-.15,.44-.01,.7,.42,.78,.05,.07,.13,.11,.21,.11,.34-.03,.64-.25,.77-.56,1.69-2.98,3.55-5.85,5.59-8.6,2.52-3.5,4.7-5.83,6.55-7,.63-.47,1.44-.64,2.2-.45,.57,.15,.89,.63,1,1.45,.09,.85,.13,1.71,.11,2.57,.04,1.05,.08,1.87,.12,2.46,.07,.73,.18,1.46,.35,2.18,.13,.77,.52,1.47,1.09,2,.56,.51,1.25,.86,2,1,1.98,.34,4.02,.14,5.91-.56,2.95-.98,5.8-2.25,8.51-3.79,3.25-1.75,5.86-3.2,7.81-4.36,1.95-1.16,4.44-2.66,7.45-4.49,1.51-1,2.52-1.6,3-1.9s.63-.65,.41-1.06c-.17-.36-.6-.51-.96-.35-.04,.02-.08,.04-.11,.07m44.8,0c-.5,.3-1.51,1-3,2-15.07,9.46-24.54,13.79-28.43,13-.53-.13-1.02-.4-1.42-.78-.42-.45-.71-1.01-.83-1.62-.16-.6-.26-1.22-.29-1.85v-2.23c.02-.94-.04-1.87-.18-2.8,0-1.07-.69-2.01-1.71-2.34-1-.45-2.27-.22-3.69,.67-2.5,1.49-5.57,4.95-9.2,10.39,1.52-4,3.31-8.67,5.36-14,.17-.52,0-.83-.45-.94s-.81,.09-1,.61c-4.67,12-7.17,18.82-7.52,20.45-.15,.44,0,.7,.42,.78,.05,.06,.12,.1,.2,.11,.34-.03,.64-.24,.77-.56,1.68-2.99,3.54-5.88,5.57-8.65,2.52-3.5,4.7-5.83,6.55-7,.63-.47,1.44-.64,2.2-.45,.57,.15,.89,.63,1,1.45,.09,.85,.13,1.71,.11,2.57,.04,1.05,.08,1.87,.12,2.46,.06,.73,.18,1.46,.34,2.18,.14,.77,.53,1.47,1.1,2,.56,.51,1.25,.86,2,1,1.98,.34,4.02,.14,5.91-.56,2.96-.97,5.82-2.22,8.54-3.74,3.25-1.75,5.85-3.2,7.8-4.36,1.95-1.16,4.41-2.68,7.39-4.55,1.51-1,2.52-1.6,3-1.9s.63-.65,.41-1.06c-.17-.36-.6-.51-.96-.35-.04,.02-.08,.04-.11,.07m28.15,0c-7.47,5.03-15.22,9.64-23.21,13.8-8.23,4.29-13.11,5.83-14.65,4.6-.66-.52-.41-1.9,.73-4.13,.28-.66,.62-1.29,1-1.9,.36,.31,.86,.39,1.3,.22,1.48-.37,3.41-2.08,5.77-5.14s3.67-5.32,3.94-6.81c.14-.82-.07-1.3-.64-1.45-1.22-.3-3.22,1.19-6,4.46-2.68,3.1-4.98,6.51-6.82,10.17-1.41,2.91-1.52,4.84-.35,5.81,.6,.48,1.35,.71,2.11,.67,1.72,0,4.22-.69,7.52-2.07,3.25-1.35,6.43-2.88,9.52-4.58,3.05-1.67,6.35-3.58,9.9-5.75s6.01-3.69,7.4-4.58c1.38-.89,2.46-1.6,3.22-2.12,.5-.3,.62-.65,.35-1.06-.16-.31-.54-.44-.85-.28-.06,.03-.11,.07-.15,.11m-30,6.42c-2,2.65-3.59,4.19-4.79,4.64-.21,.08-.44-.02-.52-.23h0c1.44-2.31,3.05-4.51,4.83-6.56,1.05-1.33,2.29-2.49,3.68-3.46-.19,1.12-1.29,3-3.28,5.64"/></svg>