<?xml version="1.0" encoding="UTF-8"?> <svg xmlns="http://www.w3.org/2000/svg" id="Layer_1" data-name="Layer 1" viewBox="0 0 252.72 134.12"><defs><style>.cls-1{fill:#eae9e6;}.cls-2{fill:#fff;}</style></defs><path class="cls-1" d="M35.7,115.45v.42a2.35,2.35,0,0,1,.91.15,1,1,0,0,1,.52.46,2,2,0,0,1,.23.78v15.07a1.91,1.91,0,0,1-.23.78,1.06,1.06,0,0,1-.52.46,2.35,2.35,0,0,1-.91.15v.42h8.61a5.4,5.4,0,0,0,2.14-.37,3.81,3.81,0,0,0,2.3-2.52,6.69,6.69,0,0,0,.26-1.89,6.52,6.52,0,0,0-.2-1.64,4.45,4.45,0,0,0-.6-1.38,4,4,0,0,0-1.05-1,4.68,4.68,0,0,0-1.54-.61,4.05,4.05,0,0,0,1.26-.68,3.43,3.43,0,0,0,.85-1,4.89,4.89,0,0,0,.48-1.29,7.46,7.46,0,0,0,.15-1.49,6.39,6.39,0,0,0-.26-1.89,4,4,0,0,0-.82-1.52,3.89,3.89,0,0,0-1.46-1,5.58,5.58,0,0,0-2.14-.37ZM46,126a5.07,5.07,0,0,1,0,6.62,5.3,5.3,0,0,1-3.56,1.05H40.71a2,2,0,0,1-.91-.16,1.08,1.08,0,0,1-.52-.47,1.91,1.91,0,0,1-.23-.77,9.91,9.91,0,0,1,0-1.09v-5.53a.62.62,0,0,1,.53-.7h2.89A5.32,5.32,0,0,1,46,126m-6.27-1.46A.62.62,0,0,1,39,124a.48.48,0,0,1,0-.17v-5.53a10.09,10.09,0,0,1,0-1.1,1.91,1.91,0,0,1,.23-.77,1.11,1.11,0,0,1,.52-.46,2.12,2.12,0,0,1,.9-.16h1.06a5.38,5.38,0,0,1,3.56,1,5.07,5.07,0,0,1,0,6.62,5.23,5.23,0,0,1-3.55,1Zm16.53-8.43a7.29,7.29,0,0,0-2.6,2,8.14,8.14,0,0,0-1.53,3,14.62,14.62,0,0,0,0,7.43,8.06,8.06,0,0,0,1.53,3,7,7,0,0,0,2.6,1.95,10,10,0,0,0,7.38,0,7.22,7.22,0,0,0,2.6-1.95,8.06,8.06,0,0,0,1.53-3,14.62,14.62,0,0,0,0-7.43,8.14,8.14,0,0,0-1.53-3,7.29,7.29,0,0,0-2.6-2,10,10,0,0,0-7.38,0M66.12,128a9,9,0,0,1-1.07,2.87,6.09,6.09,0,0,1-2,2.07,5.74,5.74,0,0,1-3.13.8,5.89,5.89,0,0,1-2.2-.37,5.18,5.18,0,0,1-1.69-1,6.08,6.08,0,0,1-1.22-1.5A8.89,8.89,0,0,1,54,129a11.11,11.11,0,0,1-.44-2.06,16.65,16.65,0,0,1-.14-2.12,17,17,0,0,1,.31-3.18,9,9,0,0,1,1.07-2.87,6.09,6.09,0,0,1,2-2.07,6.52,6.52,0,0,1,6.24,0,6.09,6.09,0,0,1,2,2.07,9,9,0,0,1,1.07,2.87,17.38,17.38,0,0,1,0,6.35m3.77-12.51v.42a2.4,2.4,0,0,1,.92.15,1,1,0,0,1,.51.46,2.19,2.19,0,0,1,.23.78v15.07a2.08,2.08,0,0,1-.23.78,1,1,0,0,1-.51.46,2.07,2.07,0,0,1-.92.15v.42h6.58a8.68,8.68,0,0,0,3.76-.74,6.83,6.83,0,0,0,2.58-2,8.42,8.42,0,0,0,1.48-3,14.22,14.22,0,0,0,0-7.27,8.77,8.77,0,0,0-1.48-3,6.93,6.93,0,0,0-2.58-2,9,9,0,0,0-3.76-.73Zm6.59.42a5.56,5.56,0,0,1,5,2.65,8.92,8.92,0,0,1,1.14,2.85,15.45,15.45,0,0,1,.37,3.45,15.15,15.15,0,0,1-.37,3.43,8.72,8.72,0,0,1-1.14,2.83,5.77,5.77,0,0,1-2,1.93,5.71,5.71,0,0,1-3,.71H74.9a2,2,0,0,1-.91-.16,1.06,1.06,0,0,1-.52-.46,1.86,1.86,0,0,1-.23-.77,10.09,10.09,0,0,1,0-1.1V118.36a10.09,10.09,0,0,1,0-1.1,2,2,0,0,1,.23-.78A1,1,0,0,1,74,116a2.35,2.35,0,0,1,.91-.15Zm15,4.88-2-3.06c-.2-.31-.35-.57-.47-.8a1.41,1.41,0,0,1-.18-.57A.39.39,0,0,1,89,116a2.08,2.08,0,0,1,.74-.11v-.42h-5v.42a5.14,5.14,0,0,1,.88.08,2.61,2.61,0,0,1,.84.36,5.57,5.57,0,0,1,.86.75,10.45,10.45,0,0,1,1,1.3l3.8,5.81v8.16a2.29,2.29,0,0,1-.23.77,1.06,1.06,0,0,1-.53.45,2.07,2.07,0,0,1-.92.15v.42h5v-.42a2,2,0,0,1-.91-.15,1.09,1.09,0,0,1-.52-.45,2.29,2.29,0,0,1-.23-.77c0-.32,0-.69,0-1.1v-7.06l4-5.81a12.3,12.3,0,0,1,.92-1.23,6,6,0,0,1,.82-.77,2.48,2.48,0,0,1,.78-.39,3.71,3.71,0,0,1,.88-.1v-.42h-3.8v.42c.63,0,.92.18.89.55a5.18,5.18,0,0,1-1,1.9l-3.74,5.47c-.66-1-1.33-2-2-3m26.81-5.3V116a2.3,2.3,0,0,1,.9.15,1,1,0,0,1,.52.46,2,2,0,0,1,.23.78,10.28,10.28,0,0,1,.06,1.1v12.87a10,10,0,0,1-.06,1.1,1.91,1.91,0,0,1-.23.78,1,1,0,0,1-.52.46,2.3,2.3,0,0,1-.9.15v.42h8.6a5.4,5.4,0,0,0,2.14-.37,3.74,3.74,0,0,0,2.3-2.52,6.34,6.34,0,0,0,.26-1.89,6.51,6.51,0,0,0-.19-1.64,5,5,0,0,0-.61-1.38,4,4,0,0,0-1-1,4.68,4.68,0,0,0-1.54-.61,4,4,0,0,0,1.25-.68,3.43,3.43,0,0,0,.85-1,4.56,4.56,0,0,0,.48-1.29,6.24,6.24,0,0,0,.16-1.49,6.74,6.74,0,0,0-.26-1.89,4.18,4.18,0,0,0-.83-1.52,3.93,3.93,0,0,0-1.45-1,5.58,5.58,0,0,0-2.14-.37ZM128.56,126a5.07,5.07,0,0,1,0,6.62,5.32,5.32,0,0,1-3.57,1.05H123.3a2,2,0,0,1-.91-.16,1.08,1.08,0,0,1-.52-.47,2.08,2.08,0,0,1-.23-.77v-6.62a.62.62,0,0,1,.53-.7H125a5.35,5.35,0,0,1,3.56,1.05m-6.27-1.46a.63.63,0,0,1-.71-.54.43.43,0,0,1,0-.16v-6.63a1.91,1.91,0,0,1,.23-.77,1.11,1.11,0,0,1,.52-.46,2.19,2.19,0,0,1,.91-.16h1.06a5.38,5.38,0,0,1,3.56,1,5.12,5.12,0,0,1,0,6.62,5.31,5.31,0,0,1-3.55,1Zm18.4-6.23q.1-.27.3-.24t.33.39l2.73,7v.21a1,1,0,0,1,0,.24.4.4,0,0,1-.07.19.23.23,0,0,1-.19.07,4.19,4.19,0,0,0-1.61.19c-.52.18-1,.38-1.54.61l-1.55.71a5.71,5.71,0,0,1-1.62.48c-.15,0-.25,0-.28-.06a.92.92,0,0,1,.07-.46Zm3.65,8.46a.78.78,0,0,1,.38.4l1.56,4a4.78,4.78,0,0,1,.4,1.57.84.84,0,0,1-.28.67,1.54,1.54,0,0,1-1,.23v.42h5v-.42a1.41,1.41,0,0,1-.77-.22,2.1,2.1,0,0,1-.58-.57,3.62,3.62,0,0,1-.45-.76,7.81,7.81,0,0,1-.35-.84L142,115.4h-.78l-5.66,15.81a9,9,0,0,1-.59,1.35,2.44,2.44,0,0,1-.61.74,1.41,1.41,0,0,1-.7.32,3.83,3.83,0,0,1-.83.08v.42h3.79v-.42a1.49,1.49,0,0,1-.8-.17.66.66,0,0,1-.26-.59,3.39,3.39,0,0,1,.11-.71c.08-.28.19-.61.33-1l.6-1.66A1.58,1.58,0,0,1,137,129a2,2,0,0,1,.84-.34,5.66,5.66,0,0,0,1.5-.51l1.47-.69a12.22,12.22,0,0,1,1.46-.56,4.31,4.31,0,0,1,1.56-.17,2.24,2.24,0,0,1,.5.16m20.82,7.32c0-.41.08-.81.11-1.21s.07-.8.1-1.2H165a2,2,0,0,1-.81,1.49,4,4,0,0,1-2.28.5h-3.79a2.27,2.27,0,0,1-.93-.15,1,1,0,0,1-.52-.46,1.91,1.91,0,0,1-.23-.78,10,10,0,0,1-.06-1.1V118.36a10.28,10.28,0,0,1,.06-1.1,2,2,0,0,1,.23-.78,1,1,0,0,1,.52-.46,2.45,2.45,0,0,1,.93-.15v-.42h-5v.42a2.4,2.4,0,0,1,.92.15,1,1,0,0,1,.51.46,2.19,2.19,0,0,1,.23.78c0,.32.05.68.05,1.1v12.87a7.46,7.46,0,0,1-.05,1.1,2.08,2.08,0,0,1-.23.78,1,1,0,0,1-.51.46,2.23,2.23,0,0,1-.92.15v.42Zm10.64-15.78q.1-.27.3-.24c.13,0,.24.15.32.39l2.73,7V126a.33.33,0,0,1-.08.19.24.24,0,0,1-.18.07,4.19,4.19,0,0,0-1.61.19c-.52.18-1,.38-1.54.61l-1.56.71a5.64,5.64,0,0,1-1.61.48c-.16,0-.25,0-.29-.06a.81.81,0,0,1,.08-.46Zm3.65,8.46a.76.76,0,0,1,.37.4l1.57,4a4.77,4.77,0,0,1,.39,1.57.8.8,0,0,1-.28.67,1.54,1.54,0,0,1-1,.23v.42h5v-.42a1.41,1.41,0,0,1-.77-.22,2.13,2.13,0,0,1-.59-.57,5.24,5.24,0,0,1-.45-.76c-.13-.28-.24-.56-.34-.84l-6.22-15.86h-.77l-5.69,15.76a8.16,8.16,0,0,1-.6,1.35,2.54,2.54,0,0,1-.6.74,1.41,1.41,0,0,1-.7.32,4,4,0,0,1-.84.08v.42h3.8v-.42a1.49,1.49,0,0,1-.8-.17.62.62,0,0,1-.26-.59,3.39,3.39,0,0,1,.11-.71c.08-.28.19-.61.33-1l.6-1.66a1.56,1.56,0,0,1,.36-.62,2.11,2.11,0,0,1,.85-.34,5.78,5.78,0,0,0,1.5-.51l1.46-.69a15.33,15.33,0,0,1,1.47-.56,4.31,4.31,0,0,1,1.56-.17,2.24,2.24,0,0,1,.5.16M202,130.56a.23.23,0,0,1-.17.18.3.3,0,0,1-.27-.08,1.77,1.77,0,0,1-.36-.41q-2.65-3.7-5.25-7.38t-5.27-7.39h-2.6v.42a2.93,2.93,0,0,1,.78.1,1.06,1.06,0,0,1,.52.39,2,2,0,0,1,.28.77,6.37,6.37,0,0,1,.09,1.23v12.87a6.31,6.31,0,0,1-.09,1.23,1.89,1.89,0,0,1-.28.76,1,1,0,0,1-.52.37,2.3,2.3,0,0,1-.78.11v.42h3.77v-.42a2.3,2.3,0,0,1-.78-.11,1,1,0,0,1-.52-.37,1.91,1.91,0,0,1-.29-.76,5.58,5.58,0,0,1-.1-1.23V119.12c0-.27.08-.43.24-.5s.39.11.68.5l5.32,7.5,5.34,7.5h.73V118.36a6.47,6.47,0,0,1,.09-1.24,1.83,1.83,0,0,1,.3-.77,1,1,0,0,1,.52-.38,2.57,2.57,0,0,1,.78-.1v-.42h-3.8v.42a3,3,0,0,1,.79.1,1.13,1.13,0,0,1,.53.38,1.69,1.69,0,0,1,.29.77,8.61,8.61,0,0,1,.08,1.24v11.82a1.34,1.34,0,0,1-.05.35m8.31-14.37a7.29,7.29,0,0,0-2.6,2,8.14,8.14,0,0,0-1.53,3,14.62,14.62,0,0,0,0,7.43,8.06,8.06,0,0,0,1.53,3,7.18,7.18,0,0,0,2.6,2,8.87,8.87,0,0,0,3.7.71,6.86,6.86,0,0,0,2.54-.43,5.53,5.53,0,0,0,1.85-1.17,6.39,6.39,0,0,0,1.24-1.72,10,10,0,0,0,.75-2.07H220a9,9,0,0,1-.78,1.93,6.45,6.45,0,0,1-1.21,1.58,5.09,5.09,0,0,1-1.71,1.07,6.72,6.72,0,0,1-4.47,0,5,5,0,0,1-1.68-1,6,6,0,0,1-1.23-1.51,8.57,8.57,0,0,1-.8-1.87,13,13,0,0,1-.44-2.06,17.61,17.61,0,0,1,0-4.23,13.38,13.38,0,0,1,.44-2.07,9,9,0,0,1,.8-1.86,6.36,6.36,0,0,1,1.23-1.51,5.46,5.46,0,0,1,1.67-1,6.79,6.79,0,0,1,4.48,0,5.25,5.25,0,0,1,1.71,1.07,6.64,6.64,0,0,1,1.21,1.58A9.43,9.43,0,0,1,220,121h.42v-4.29H220a.81.81,0,0,1-.11.43.47.47,0,0,1-.39.21,1.57,1.57,0,0,1-.71-.13,5.33,5.33,0,0,1-1.06-.55,5.37,5.37,0,0,0-1.75-.81,7.93,7.93,0,0,0-1.94-.24,9.2,9.2,0,0,0-3.7.71m12.67-.71V116a2.35,2.35,0,0,1,.91.15,1,1,0,0,1,.51.46,2,2,0,0,1,.23.78,10.28,10.28,0,0,1,.06,1.1v12.87a10,10,0,0,1-.06,1.1,1.91,1.91,0,0,1-.23.78,1,1,0,0,1-.51.46,2.18,2.18,0,0,1-.91.15v.42H235.1c.05-.41.09-.81.13-1.21s.08-.8.1-1.2H235a2,2,0,0,1-.83,1.49,4,4,0,0,1-2.28.5h-3.8a2.35,2.35,0,0,1-.91-.15,1.06,1.06,0,0,1-.52-.46,2.08,2.08,0,0,1-.23-.78v-6.63a.62.62,0,0,1,.53-.7.54.54,0,0,1,.18,0h3.44a10.14,10.14,0,0,1,1.1.06,2,2,0,0,1,.78.23,1.06,1.06,0,0,1,.46.52,2.35,2.35,0,0,1,.14.91h.42V123H233a2.19,2.19,0,0,1-.14.92,1,1,0,0,1-.46.51,2,2,0,0,1-.78.23,6.76,6.76,0,0,1-1.1.06h-3.44a.63.63,0,0,1-.71-.54.43.43,0,0,1,0-.16V117.4a1.91,1.91,0,0,1,.23-.77,1.16,1.16,0,0,1,.52-.46A2.19,2.19,0,0,1,228,116h3.8a4.22,4.22,0,0,1,2.28.5,2,2,0,0,1,.83,1.49h.41a11.65,11.65,0,0,0-.1-1.2c0-.39-.08-.8-.13-1.21Z"></path><path class="cls-1" d="M106.69,130.52a3,3,0,0,1-.92-2.3,2.93,2.93,0,0,1,.29-1.33,2.48,2.48,0,0,1,.76-.88,3.28,3.28,0,0,1,1.12-.48,6,6,0,0,1,1.34-.15v-.29a2.74,2.74,0,0,1-2.57-1.75,3.09,3.09,0,0,1-.22-1.21,3.66,3.66,0,0,1,.19-1.22,2.72,2.72,0,0,1,.55-1,2.28,2.28,0,0,1,.85-.62,2.83,2.83,0,0,1,1.11-.23,2.9,2.9,0,0,1,1.39.29,2.13,2.13,0,0,1,.75.71.68.68,0,0,1-.09,1,.81.81,0,0,0-.14.33.61.61,0,0,0,.37.64.45.45,0,0,0,.42,0,.54.54,0,0,0,.27-.32.61.61,0,0,0,0-.42,3.23,3.23,0,0,0-1.06-1.84,3.39,3.39,0,0,0-2.11-.63,5.79,5.79,0,0,0-1.55.21,3.56,3.56,0,0,0-1.19.62,2.59,2.59,0,0,0-.77,1,3.5,3.5,0,0,0-.27,1.43,3.1,3.1,0,0,0,.21,1.13,3.33,3.33,0,0,0,.54.93,2.45,2.45,0,0,0,.73.63,1.61,1.61,0,0,0,.77.23,2.27,2.27,0,0,0-.92.23,3.88,3.88,0,0,0-1,.64,3.93,3.93,0,0,0-.77,1,2.64,2.64,0,0,0-.31,1.29,3.32,3.32,0,0,0,.35,1.55,2.91,2.91,0,0,0,1,1.06,4.48,4.48,0,0,0,1.52.62,8.21,8.21,0,0,0,1.91.2,5.34,5.34,0,0,0,3.16-.79,3,3,0,0,0,1.1-2.6,4,4,0,0,0-.32-1.63,2.37,2.37,0,0,0-.91-1,2.9,2.9,0,0,0,1.17-.82,1.9,1.9,0,0,0,.48-1.08,3.53,3.53,0,0,0,0-.65,3.63,3.63,0,0,0-.13-.64.73.73,0,0,0-.23-.37.65.65,0,0,0-.38-.13.6.6,0,0,0-.4.18.54.54,0,0,0-.12.42.57.57,0,0,0,.41.52,2.19,2.19,0,0,1,.55.28c.13.11.15.29,0,.55a1.07,1.07,0,0,1-.64.56c-.39.17-.78.32-1.18.45a3.37,3.37,0,0,0-1.44.83,2,2,0,0,0-.57,1.19,3.64,3.64,0,0,0,0,.66,3.44,3.44,0,0,0,.12.64.72.72,0,0,0,.23.36.47.47,0,0,0,.39.12.48.48,0,0,0,.4-.17.54.54,0,0,0,.11-.41.56.56,0,0,0-.41-.52l-.31-.12a.87.87,0,0,1-.23-.16A.38.38,0,0,1,110,127a.65.65,0,0,1,0-.34,1,1,0,0,1,.52-.49,9.4,9.4,0,0,1,1-.39,2.51,2.51,0,0,1,.91.89,3.25,3.25,0,0,1-.65,3.81,3.8,3.8,0,0,1-2.63.84,3.72,3.72,0,0,1-2.6-.84"></path><path class="cls-1" d="M97.59,0q-8.69-.23-22,3.69a182.74,182.74,0,0,0-18,6.59,195.9,195.9,0,0,0-19.14,9.38A172.41,172.41,0,0,0,20.82,30.91,78.36,78.36,0,0,0,7.24,43.31Q1.66,49.85.4,55.76-2.47,68.84,15.06,76.54a92.29,92.29,0,0,0,12.36,4q4.7,1.23,7.19,2a53.44,53.44,0,0,1,5.59,2.18,17.08,17.08,0,0,1,4.54,2.74q-17,7.82-25.85,13.91t-9.1,9.43c0,1.49.93,2.35,2.9,2.57a5.08,5.08,0,0,0,1.1.12q4.8,0,13-4a68.27,68.27,0,0,0,13.94-8.77q6.81-5.7,7.1-9.83a6.9,6.9,0,0,0-.59-3q16.62-7.47,39.31-15.75c.56-.22.79-.57.69-1.06s-.44-.61-1-.39Q63.44,79,46.31,86.82a13.32,13.32,0,0,0-4.58-3.19,48.38,48.38,0,0,0-5.84-2.34q-2.64-.84-7.75-2.29a114.35,114.35,0,0,1-12.27-3.91Q-.7,67.71,2,55.87q1.86-8.7,13.68-19a140.27,140.27,0,0,1,28-18.61,183.81,183.81,0,0,1,32.18-13Q88.7,1.48,97,1.52t10.59,4q3.38,6.15-8,20.88a32.69,32.69,0,0,0,.73-6c0-.52-.25-.74-.78-.67a.87.87,0,0,0-.83.89h0A29.68,29.68,0,0,1,97,29.29a.61.61,0,0,0,.21.67v.11h.11a.6.6,0,0,0,1-.22Q113.1,12.09,108.84,4.6,106.26.25,97.59,0M39.8,99.66a63.72,63.72,0,0,1-14.42,8.94q-8.26,3.81-12.21,3.35c-1.23-.22-1.82-.63-1.79-1.23a3.92,3.92,0,0,1,1-2,22.32,22.32,0,0,1,3.42-3.24,65.17,65.17,0,0,1,6.2-4.36q3.7-2.34,9.88-5.64t13.81-6.76a3.72,3.72,0,0,1,.59,2.34q-.27,3.48-6.43,8.6M134,70.73q-24,10.41-38,10.5,2-5,.49-8.49c-.93-2.31-2.82-3.42-5.66-3.35a9.38,9.38,0,0,0-4.44,1.06,7.23,7.23,0,0,0-3,2.85,4.79,4.79,0,0,0,.73,6q2.73,2.91,9.57,3.35c-.43.75-.84,1.42-1.25,2-2.55,3.51-5.65,5.25-9.3,5.25-1.71,0-2.76-.59-3.15-1.78q-.88-2.57,3.5-7.15c.37-.45.38-.82,0-1.12a.71.71,0,0,0-1,0l-.08.09q-5.09,5.37-4,8.83.87,2.7,4.44,2.68H83q6.27-.12,10.67-6a27.78,27.78,0,0,0,1.59-2.68h.44q14.08,0,38.63-10.62a.88.88,0,0,0,.57-1.06c-.1-.48-.43-.61-1-.39M85.49,78.1a3.28,3.28,0,0,1-.59-4.24c1-1.94,2.89-2.9,5.65-2.9h.11A4.29,4.29,0,0,1,95,73.52c.91,2,.71,4.57-.58,7.71q-6.53-.33-8.94-3.13m93.12-7.37c-.5.3-1.5,1-3,2q-22.62,14.19-28.43,13a3.16,3.16,0,0,1-1.42-.78,3.31,3.31,0,0,1-.83-1.62,8.82,8.82,0,0,1-.29-1.84V79.25a16.35,16.35,0,0,0-.18-2.79,2.48,2.48,0,0,0-1.71-2.35,4,4,0,0,0-3.69.67q-3.75,2.25-9.2,10.39,2.28-6,5.36-14a.7.7,0,0,0-.44-1,.89.89,0,0,0-1.06.61q-7,18-7.52,20.45-.22.66.42.78a.26.26,0,0,0,.21.11.91.91,0,0,0,.77-.56,86.67,86.67,0,0,1,5.59-8.6q3.78-5.25,6.55-7a2.66,2.66,0,0,1,2.2-.45c.57.15.89.64,1,1.46a20.09,20.09,0,0,1,.11,2.57c0,1,.08,1.86.12,2.45a17.65,17.65,0,0,0,.34,2.18,3.62,3.62,0,0,0,1.1,2,4,4,0,0,0,2,1,11.34,11.34,0,0,0,5.91-.56A47,47,0,0,0,161,82.85q4.88-2.61,7.81-4.35c1.95-1.15,4.44-2.65,7.45-4.49,1.51-1,2.51-1.6,3-1.9s.64-.65.41-1.06a.73.73,0,0,0-1.07-.28m44.8,0c-.5.3-1.52,1-3,2Q197.8,87,192,85.77a3.14,3.14,0,0,1-1.43-.78,3.31,3.31,0,0,1-.83-1.62,8.82,8.82,0,0,1-.29-1.84V79.29a17.42,17.42,0,0,0-.17-2.79,2.49,2.49,0,0,0-1.71-2.35c-1-.44-2.27-.22-3.7.67q-3.73,2.25-9.2,10.39,2.29-6,5.37-14a.7.7,0,0,0-.45-1,.89.89,0,0,0-1.06.61q-7,18-7.51,20.45-.24.66.42.78a.24.24,0,0,0,.2.11.91.91,0,0,0,.77-.56A86.72,86.72,0,0,1,178,83q3.78-5.25,6.55-7a2.66,2.66,0,0,1,2.2-.45c.57.15.9.64,1,1.46a20.09,20.09,0,0,1,.11,2.57c0,1,.08,1.86.12,2.45a16,16,0,0,0,.35,2.18,3.6,3.6,0,0,0,1.09,2,4,4,0,0,0,2,1,11.3,11.3,0,0,0,5.9-.56,47.67,47.67,0,0,0,8.54-3.74q4.88-2.61,7.8-4.35T221.05,74c1.51-1,2.51-1.6,3-1.9s.64-.65.41-1.06a.72.72,0,0,0-1-.34l-.1.06m28.14,0a235.84,235.84,0,0,1-23.2,13.8Q216,91,213.68,89.16c-.66-.52-.41-1.9.72-4.13a15.66,15.66,0,0,1,1-1.9,1.26,1.26,0,0,0,1.3.22q2.22-.55,5.77-5.13c2.37-3,3.68-5.32,3.93-6.82.15-.82-.06-1.3-.63-1.45q-1.83-.45-6,4.47A49.23,49.23,0,0,0,213,84.58c-1.41,2.91-1.52,4.85-.35,5.81a3.05,3.05,0,0,0,2.11.67c1.71,0,4.22-.68,7.51-2.06a99.08,99.08,0,0,0,9.52-4.58c3.06-1.68,6.35-3.6,9.9-5.76s6-3.68,7.4-4.58,2.46-1.6,3.22-2.12c.5-.3.62-.65.36-1.06a.65.65,0,0,0-.88-.25.5.5,0,0,0-.12.08m-30,6.43c-2,2.64-3.59,4.18-4.79,4.63a.38.38,0,0,1-.51-.2v0A50,50,0,0,1,221.15,75a17.31,17.31,0,0,1,3.68-3.47c-.2,1.12-1.29,3-3.28,5.65"></path><path class="cls-2" d="M35.69,115.45v.42a2.25,2.25,0,0,1,.9.15,1.09,1.09,0,0,1,.53.46,2.32,2.32,0,0,1,.23.78c0,.32,0,.69,0,1.1v12.87c0,.42,0,.78,0,1.1a2.25,2.25,0,0,1-.23.78,1.11,1.11,0,0,1-.53.47,2.46,2.46,0,0,1-.9.14v.42h8.6a5.56,5.56,0,0,0,2.15-.37,4,4,0,0,0,1.46-1,4,4,0,0,0,.84-1.52,6.8,6.8,0,0,0,.26-1.89,6.64,6.64,0,0,0-.2-1.64,4.16,4.16,0,0,0-.61-1.37,3.65,3.65,0,0,0-1-1,4.55,4.55,0,0,0-1.54-.61,4,4,0,0,0,1.26-.68,3.27,3.27,0,0,0,.84-1,4.76,4.76,0,0,0,.48-1.29,6.57,6.57,0,0,0,.16-1.5,6.8,6.8,0,0,0-.26-1.89,4,4,0,0,0-.83-1.52,3.83,3.83,0,0,0-1.45-1,5.47,5.47,0,0,0-2.14-.37ZM46,126.05a5.08,5.08,0,0,1,0,6.62,5.36,5.36,0,0,1-3.57,1.05H40.69a2.1,2.1,0,0,1-.9-.16,1,1,0,0,1-.52-.47,1.94,1.94,0,0,1-.23-.77,8.6,8.6,0,0,1-.06-1.09V125.7a.62.62,0,0,1,.71-.69h2.72a5.35,5.35,0,0,1,3.55,1m-6.27-1.46a.62.62,0,0,1-.71-.69v-5.54a9,9,0,0,1,.06-1.1,1.84,1.84,0,0,1,.23-.77,1.07,1.07,0,0,1,.52-.46,2.07,2.07,0,0,1,.9-.16h1.06a5.34,5.34,0,0,1,3.56,1,5.08,5.08,0,0,1,0,6.62,5.28,5.28,0,0,1-3.55,1Zm16.53-8.43a7.21,7.21,0,0,0-2.6,2,8.09,8.09,0,0,0-1.53,3,14.66,14.66,0,0,0,0,7.44,8.12,8.12,0,0,0,1.53,2.95,7.08,7.08,0,0,0,2.6,1.95,10.08,10.08,0,0,0,7.38,0,7.08,7.08,0,0,0,2.6-1.95,8.12,8.12,0,0,0,1.53-2.95,14.66,14.66,0,0,0,0-7.44,8.09,8.09,0,0,0-1.53-3,7.21,7.21,0,0,0-2.6-2,9.94,9.94,0,0,0-7.38,0M66.11,128A9.12,9.12,0,0,1,65,130.83a6.22,6.22,0,0,1-2,2.08,5.75,5.75,0,0,1-3.13.79,6.08,6.08,0,0,1-2.2-.37,5.18,5.18,0,0,1-1.69-1,6.13,6.13,0,0,1-1.22-1.5A8.28,8.28,0,0,1,54,129a11.9,11.9,0,0,1-.44-2.07,16.86,16.86,0,0,1-.14-2.11,17.24,17.24,0,0,1,.31-3.19,9.12,9.12,0,0,1,1.07-2.87,6.09,6.09,0,0,1,2-2.07,6.48,6.48,0,0,1,6.24,0,6.09,6.09,0,0,1,2,2.07,9.12,9.12,0,0,1,1.07,2.87,17.53,17.53,0,0,1,0,6.35m3.77-12.51v.42a2.29,2.29,0,0,1,.92.15,1.09,1.09,0,0,1,.51.46,1.94,1.94,0,0,1,.23.78,9.15,9.15,0,0,1,0,1.1v12.87a9.05,9.05,0,0,1,0,1.1,1.89,1.89,0,0,1-.23.78,1.11,1.11,0,0,1-.51.47,2.5,2.5,0,0,1-.92.14v.42h6.59a8.85,8.85,0,0,0,3.76-.73,7,7,0,0,0,2.57-2,8.46,8.46,0,0,0,1.48-3,14,14,0,0,0,0-7.27,8.46,8.46,0,0,0-1.48-3,6.87,6.87,0,0,0-2.57-2,9,9,0,0,0-3.76-.73Zm6.59.42a5.52,5.52,0,0,1,5,2.65,9.11,9.11,0,0,1,1.15,2.85,15.88,15.88,0,0,1,.36,3.45,15.69,15.69,0,0,1-.36,3.43,8.9,8.9,0,0,1-1.15,2.83,6,6,0,0,1-2,1.93,5.84,5.84,0,0,1-3,.71H74.89a2.12,2.12,0,0,1-.91-.16,1.06,1.06,0,0,1-.52-.46,1.84,1.84,0,0,1-.23-.77c0-.32,0-.68,0-1.1V118.36c0-.41,0-.78,0-1.1a1.94,1.94,0,0,1,.23-.78A1.06,1.06,0,0,1,74,116a2.3,2.3,0,0,1,.91-.15Zm15,4.88c-.66-1-1.32-2-2-3.06-.19-.3-.35-.57-.47-.8a1.42,1.42,0,0,1-.17-.57.35.35,0,0,1,.21-.33,1.7,1.7,0,0,1,.75-.12v-.42h-5v.42a4.85,4.85,0,0,1,.87.08,2.54,2.54,0,0,1,.84.36,4.42,4.42,0,0,1,.86.76,9.31,9.31,0,0,1,1,1.29l3.79,5.81v7.06c0,.42,0,.78-.05,1.1a1.84,1.84,0,0,1-.23.77,1,1,0,0,1-.52.45,2.38,2.38,0,0,1-.93.15v.42h5v-.42a2.29,2.29,0,0,1-.92-.15,1,1,0,0,1-.51-.45,1.84,1.84,0,0,1-.23-.77,9.05,9.05,0,0,1-.05-1.1v-7.06l4-5.81a10.29,10.29,0,0,1,.93-1.23,5.17,5.17,0,0,1,.81-.77,2.3,2.3,0,0,1,.79-.38,3.34,3.34,0,0,1,.87-.11v-.42h-3.8v.42c.63,0,.93.19.89.56a5.1,5.1,0,0,1-1,1.89l-3.73,5.47c-.67-1-1.33-2-2-3m26.8-5.3v.42a2.3,2.3,0,0,1,.91.15,1.06,1.06,0,0,1,.52.46,1.94,1.94,0,0,1,.23.78,9.15,9.15,0,0,1,0,1.1v12.87a9.05,9.05,0,0,1,0,1.1,1.89,1.89,0,0,1-.23.78,1.08,1.08,0,0,1-.52.47,2.52,2.52,0,0,1-.91.14v.42h8.61a5.47,5.47,0,0,0,2.14-.37,4,4,0,0,0,1.47-1,3.88,3.88,0,0,0,.83-1.52,6.44,6.44,0,0,0,.26-1.89,6.2,6.2,0,0,0-.2-1.64,4.36,4.36,0,0,0-.6-1.37,3.56,3.56,0,0,0-1-1,4.42,4.42,0,0,0-1.53-.61,3.94,3.94,0,0,0,1.25-.68,3.44,3.44,0,0,0,.85-1,4.76,4.76,0,0,0,.48-1.29,6.57,6.57,0,0,0,.16-1.5,6.8,6.8,0,0,0-.26-1.89,4.09,4.09,0,0,0-.83-1.52,3.91,3.91,0,0,0-1.45-1,5.56,5.56,0,0,0-2.15-.37Zm10.28,10.6a4.16,4.16,0,0,1,1.22,3.31,4.1,4.1,0,0,1-1.23,3.31,5.36,5.36,0,0,1-3.57,1.05h-1.69a2.15,2.15,0,0,1-.91-.16,1.08,1.08,0,0,1-.52-.47,2.11,2.11,0,0,1-.23-.77c0-.31,0-.67,0-1.09V125.7a.62.62,0,0,1,.71-.69H125a5.38,5.38,0,0,1,3.56,1m-6.27-1.46a.62.62,0,0,1-.71-.69v-5.54c0-.41,0-.78,0-1.1a2,2,0,0,1,.23-.77,1.11,1.11,0,0,1,.52-.46,2.12,2.12,0,0,1,.91-.16h1.06a5.3,5.3,0,0,1,3.55,1,5.1,5.1,0,0,1,0,6.62,5.32,5.32,0,0,1-3.55,1Zm18.4-6.23q.1-.27.3-.24c.14,0,.24.15.33.39l2.73,7c0,.06,0,.12,0,.21a1,1,0,0,1,0,.24.36.36,0,0,1-.07.19.24.24,0,0,1-.19.07,4.15,4.15,0,0,0-1.61.19,14.9,14.9,0,0,0-1.54.61l-1.55.71a5.91,5.91,0,0,1-1.62.48c-.15,0-.25,0-.28-.06s0-.22.07-.46Zm3.65,8.46a.77.77,0,0,1,.38.41l1.56,4a4.68,4.68,0,0,1,.4,1.57.84.84,0,0,1-.28.67,1.59,1.59,0,0,1-1,.23v.42h5v-.42a1.34,1.34,0,0,1-.77-.22,2.2,2.2,0,0,1-.58-.56,4.45,4.45,0,0,1-.45-.77c-.13-.28-.25-.56-.35-.84l-6.21-15.86h-.77l-5.7,15.76a10.41,10.41,0,0,1-.59,1.35,2.34,2.34,0,0,1-.61.74,1.67,1.67,0,0,1-.7.33,4.28,4.28,0,0,1-.83.07v.42h3.79v-.42a1.51,1.51,0,0,1-.8-.17.64.64,0,0,1-.26-.58,3.08,3.08,0,0,1,.11-.72c.08-.27.19-.62.33-1l.6-1.66a1.52,1.52,0,0,1,.37-.62,2.06,2.06,0,0,1,.84-.34,6.37,6.37,0,0,0,1.51-.5l1.46-.7a11.39,11.39,0,0,1,1.47-.56,4,4,0,0,1,1.55-.17,1.94,1.94,0,0,1,.5.16m20.82,7.32.12-1.2.09-1.21H165a2,2,0,0,1-.81,1.49,4,4,0,0,1-2.27.5h-3.8a2.6,2.6,0,0,1-.93-.14,1.08,1.08,0,0,1-.52-.47,2.05,2.05,0,0,1-.23-.78,9.05,9.05,0,0,1,0-1.1V118.36a9.15,9.15,0,0,1,0-1.1,2.11,2.11,0,0,1,.23-.78,1.06,1.06,0,0,1,.52-.46,2.38,2.38,0,0,1,.93-.15v-.42h-5v.42a2.29,2.29,0,0,1,.92.15,1.09,1.09,0,0,1,.51.46,2.11,2.11,0,0,1,.23.78c0,.32.05.69.05,1.1v12.87c0,.42,0,.78-.05,1.1a2.05,2.05,0,0,1-.23.78,1.11,1.11,0,0,1-.51.47,2.5,2.5,0,0,1-.92.14v.42Zm10.64-15.78c.07-.18.17-.26.31-.24s.23.15.32.39l2.73,7a1,1,0,0,1,0,.21.65.65,0,0,1,0,.24.29.29,0,0,1-.07.19.22.22,0,0,1-.19.07,4.1,4.1,0,0,0-1.6.19,14.21,14.21,0,0,0-1.55.61l-1.55.71a5.81,5.81,0,0,1-1.62.48c-.15,0-.25,0-.28-.06a.81.81,0,0,1,.07-.46Zm3.65,8.46a.73.73,0,0,1,.38.41l1.56,4a4.68,4.68,0,0,1,.4,1.57.81.81,0,0,1-.28.67,1.59,1.59,0,0,1-1,.23v.42h5v-.42a1.37,1.37,0,0,1-.78-.22,2.36,2.36,0,0,1-.58-.56,4.45,4.45,0,0,1-.45-.77,7.39,7.39,0,0,1-.34-.84l-6.22-15.86h-.77l-5.7,15.76a9.19,9.19,0,0,1-.59,1.35,2.34,2.34,0,0,1-.61.74,1.61,1.61,0,0,1-.7.33,4.21,4.21,0,0,1-.83.07v.42h3.8v-.42a1.55,1.55,0,0,1-.81-.17.64.64,0,0,1-.26-.58,2.69,2.69,0,0,1,.12-.72c.07-.27.18-.62.32-1l.6-1.66a1.52,1.52,0,0,1,.37-.62,2.12,2.12,0,0,1,.85-.34,6.45,6.45,0,0,0,1.5-.5l1.46-.7a11.39,11.39,0,0,1,1.47-.56,4,4,0,0,1,1.55-.17,1.82,1.82,0,0,1,.5.16m22.63,3.72a.26.26,0,0,1-.17.18.33.33,0,0,1-.27-.09,1.74,1.74,0,0,1-.36-.41q-2.66-3.7-5.25-7.38t-5.27-7.39h-2.61v.42a2.6,2.6,0,0,1,.79.11,1,1,0,0,1,.52.38,2,2,0,0,1,.28.77,8.14,8.14,0,0,1,.08,1.23v12.87a8.14,8.14,0,0,1-.08,1.23,1.86,1.86,0,0,1-.28.76,1,1,0,0,1-.52.38,2.62,2.62,0,0,1-.79.1v.42h3.78v-.42a2.51,2.51,0,0,1-.78-.1,1,1,0,0,1-.52-.38,1.85,1.85,0,0,1-.3-.76,6.88,6.88,0,0,1-.09-1.23V119.12c0-.27.08-.43.24-.49s.38.1.68.49l5.32,7.5q2.64,3.74,5.34,7.5h.73V118.36a7.08,7.08,0,0,1,.09-1.24,2.07,2.07,0,0,1,.29-.77,1,1,0,0,1,.53-.37,2.48,2.48,0,0,1,.78-.11v-.42h-3.8v.42a2.48,2.48,0,0,1,.78.11,1.08,1.08,0,0,1,.54.37,1.77,1.77,0,0,1,.29.77,8.39,8.39,0,0,1,.08,1.24v11.82a1.25,1.25,0,0,1,0,.36m8.31-14.38a7.3,7.3,0,0,0-2.6,2,8.09,8.09,0,0,0-1.53,3,14.66,14.66,0,0,0,0,7.44,8.12,8.12,0,0,0,1.53,2.95,7.3,7.3,0,0,0,2.6,2,9,9,0,0,0,3.7.71,6.79,6.79,0,0,0,2.54-.43,5.46,5.46,0,0,0,1.85-1.17,6.24,6.24,0,0,0,1.24-1.72,10.33,10.33,0,0,0,.75-2.06h-.42a9,9,0,0,1-.78,1.92,6.56,6.56,0,0,1-1.21,1.59,5.14,5.14,0,0,1-1.71,1.06,6.76,6.76,0,0,1-4.47,0,5.14,5.14,0,0,1-1.68-1,6.26,6.26,0,0,1-1.23-1.51,9.08,9.08,0,0,1-.8-1.86,12.9,12.9,0,0,1-.44-2.07,17.27,17.27,0,0,1,0-4.23,12.55,12.55,0,0,1,.44-2.06,8.93,8.93,0,0,1,.8-1.87,6.26,6.26,0,0,1,1.23-1.51,5.27,5.27,0,0,1,1.67-1,6.08,6.08,0,0,1,2.22-.37,6.15,6.15,0,0,1,2.26.39,5.17,5.17,0,0,1,1.71,1.07,6.32,6.32,0,0,1,1.21,1.58,8.86,8.86,0,0,1,.78,1.93h.42v-4.3h-.42a.83.83,0,0,1-.11.43.51.51,0,0,1-.39.21,1.62,1.62,0,0,1-.71-.13,5.16,5.16,0,0,1-1.06-.55,5.36,5.36,0,0,0-1.75-.81,7.87,7.87,0,0,0-1.94-.24,9,9,0,0,0-3.7.71m12.67-.71v.42a2.32,2.32,0,0,1,.92.15,1.09,1.09,0,0,1,.51.46,2.32,2.32,0,0,1,.23.78c0,.32.05.69.05,1.1v12.87c0,.42,0,.78-.05,1.1a2.25,2.25,0,0,1-.23.78,1.11,1.11,0,0,1-.51.47,2.54,2.54,0,0,1-.92.14v.42h12.1l.12-1.2c0-.4.08-.8.11-1.21H235a2,2,0,0,1-.82,1.49,4.13,4.13,0,0,1-2.29.5h-3.79a2.52,2.52,0,0,1-.91-.14,1,1,0,0,1-.52-.47,1.89,1.89,0,0,1-.23-.78,8.88,8.88,0,0,1-.06-1.1V125.7a.62.62,0,0,1,.71-.69h3.45a8.88,8.88,0,0,1,1.09,0,1.94,1.94,0,0,1,.78.23,1.06,1.06,0,0,1,.46.52,2.34,2.34,0,0,1,.15.91h.41v-3.85H233a2.29,2.29,0,0,1-.15.92,1,1,0,0,1-.46.51,1.94,1.94,0,0,1-.78.23,8.71,8.71,0,0,1-1.09.06h-3.45a.62.62,0,0,1-.71-.69v-5.54a9,9,0,0,1,.06-1.1,1.84,1.84,0,0,1,.23-.77,1.07,1.07,0,0,1,.52-.46,2.12,2.12,0,0,1,.91-.16h3.79a4.13,4.13,0,0,1,2.29.5,2,2,0,0,1,.82,1.49h.42c0-.4-.07-.81-.11-1.2l-.12-1.21Z"></path><path class="cls-2" d="M106.69,130.52a2.91,2.91,0,0,1-.92-2.3,2.75,2.75,0,0,1,.29-1.33,2.29,2.29,0,0,1,.76-.87,3.11,3.11,0,0,1,1.11-.49,5.94,5.94,0,0,1,1.35-.15v-.29a2.77,2.77,0,0,1-1.08-.21,2.62,2.62,0,0,1-.89-.61,2.87,2.87,0,0,1-.6-.93,3.11,3.11,0,0,1-.22-1.21,3.71,3.71,0,0,1,.19-1.22,2.84,2.84,0,0,1,.54-1,2.49,2.49,0,0,1,.85-.62,2.73,2.73,0,0,1,1.12-.22,2.83,2.83,0,0,1,1.39.28,2.33,2.33,0,0,1,.75.71,1,1,0,0,1,.17.57.88.88,0,0,1-.26.43.81.81,0,0,0-.14.33.61.61,0,0,0,.05.35.57.57,0,0,0,.32.29.45.45,0,0,0,.42,0,.53.53,0,0,0,.27-.32.75.75,0,0,0,0-.42,3.07,3.07,0,0,0-1.07-1.83,3.29,3.29,0,0,0-2.1-.64,5.33,5.33,0,0,0-1.55.21,3.5,3.5,0,0,0-1.2.62,2.74,2.74,0,0,0-.77,1,3.54,3.54,0,0,0-.27,1.43,3,3,0,0,0,.21,1.13,3.87,3.87,0,0,0,.55.93,2.53,2.53,0,0,0,.73.63,1.61,1.61,0,0,0,.77.23,2.34,2.34,0,0,0-.92.23,3.37,3.37,0,0,0-1,.65,3.51,3.51,0,0,0-.77,1,2.61,2.61,0,0,0-.32,1.28,3.12,3.12,0,0,0,.36,1.55,3,3,0,0,0,1,1.07,4.75,4.75,0,0,0,1.52.62,8.75,8.75,0,0,0,1.91.2,5.36,5.36,0,0,0,3.16-.8,3,3,0,0,0,1.1-2.59,3.9,3.9,0,0,0-.32-1.64,2.28,2.28,0,0,0-.92-1,3.07,3.07,0,0,0,1.18-.82,2,2,0,0,0,.48-1.07,3.63,3.63,0,0,0,0-.66,3.81,3.81,0,0,0-.13-.64.68.68,0,0,0-.23-.36.64.64,0,0,0-.39-.14.52.52,0,0,0-.39.19.49.49,0,0,0-.12.41.57.57,0,0,0,.41.52,1.7,1.7,0,0,1,.54.28c.14.11.16.3,0,.55a1.13,1.13,0,0,1-.64.56,9.17,9.17,0,0,1-1.18.45,3.25,3.25,0,0,0-1.44.83,2,2,0,0,0-.57,1.2,2.86,2.86,0,0,0,0,.65,3,3,0,0,0,.12.64.7.7,0,0,0,.23.36.54.54,0,0,0,.39.13.48.48,0,0,0,.39-.18.49.49,0,0,0,.12-.41.57.57,0,0,0-.41-.52l-.31-.12a.59.59,0,0,1-.23-.16.38.38,0,0,1-.11-.23.64.64,0,0,1,0-.34,1,1,0,0,1,.52-.48,6.36,6.36,0,0,1,1-.39,2.5,2.5,0,0,1,.91.89,3.31,3.31,0,0,1-.6,3.8,3.85,3.85,0,0,1-2.63.84,3.71,3.71,0,0,1-2.6-.84"></path><path class="cls-2" d="M97.58,0q-8.67-.23-22,3.68a183.18,183.18,0,0,0-18,6.6,193.86,193.86,0,0,0-19.14,9.38A170,170,0,0,0,20.8,30.9,78.55,78.55,0,0,0,7.22,43.3Q1.66,49.84.38,55.76-2.49,68.83,15,76.54a94.83,94.83,0,0,0,12.36,4c3.14.82,5.53,1.49,7.19,2a51.32,51.32,0,0,1,5.59,2.18,17,17,0,0,1,4.55,2.74q-17,7.82-25.86,13.9t-9.09,9.45c0,1.48.92,2.34,2.89,2.56a5.08,5.08,0,0,0,1.1.12q4.8,0,13-4a67.82,67.82,0,0,0,14-8.77q6.81-5.7,7.1-9.83a6.88,6.88,0,0,0-.59-3q16.62-7.49,39.31-15.75c.56-.22.79-.58.69-1.06s-.43-.62-1-.39Q63.43,79,46.3,86.82a13.23,13.23,0,0,0-4.58-3.19,48.78,48.78,0,0,0-5.84-2.35C34.11,80.73,31.53,80,28.13,79a112.34,112.34,0,0,1-12.27-3.91Q-.72,67.72,1.93,55.87q1.88-8.71,13.68-19a140.09,140.09,0,0,1,28-18.61,182.83,182.83,0,0,1,32.18-13Q88.62,1.47,96.87,1.52c5.5,0,9,1.36,10.58,4q3.39,6.15-8,20.89a31.48,31.48,0,0,0,.73-6c0-.52-.24-.74-.77-.67a.85.85,0,0,0-.83.89A30.18,30.18,0,0,1,97,29.28a.63.63,0,0,0,.22.67l0,.11h.11c.39.3.74.22,1-.22q14.76-17.78,10.49-25.25Q106.26.22,97.58,0M39.79,99.66a63.93,63.93,0,0,1-14.43,8.94Q17.1,112.4,13.15,112c-1.22-.22-1.82-.63-1.79-1.23a3.92,3.92,0,0,1,1-2,22.2,22.2,0,0,1,3.42-3.24,63.84,63.84,0,0,1,6.19-4.35q3.7-2.36,9.87-5.65t13.82-6.75a3.74,3.74,0,0,1,.59,2.34q-.27,3.47-6.43,8.6m94.14-28.93Q110,81.11,96,81.23c1.34-3.35,1.5-6.18.5-8.49s-2.83-3.43-5.67-3.35a9.15,9.15,0,0,0-4.43,1.06,7.15,7.15,0,0,0-3,2.85,4.79,4.79,0,0,0,.72,6q2.73,2.91,9.58,3.35c-.43.75-.85,1.42-1.25,2q-3.84,5.25-9.31,5.25c-1.71,0-2.76-.59-3.15-1.78q-.88-2.58,3.5-7.15c.38-.45.39-.82,0-1.12a.71.71,0,0,0-1.08.11q-5.09,5.37-4,8.83c.57,1.78,2.05,2.68,4.44,2.68H83q6.27-.12,10.67-6a22.7,22.7,0,0,0,1.59-2.68h.45q14.07,0,38.63-10.61a.88.88,0,0,0,.57-1.06q-.15-.74-1-.39M85.48,78.1a3.29,3.29,0,0,1-.59-4.24Q86.42,71,90.54,71h.12A4.29,4.29,0,0,1,95,73.52q1.36,3-.58,7.71-6.54-.33-9-3.13m93.14-7.37c-.5.3-1.51,1-3,2Q153,86.93,147.15,85.7a3.13,3.13,0,0,1-1.42-.78,3.32,3.32,0,0,1-.83-1.62,8.94,8.94,0,0,1-.29-1.85c0-.52,0-1.26,0-2.23a15.65,15.65,0,0,0-.18-2.8,2.47,2.47,0,0,0-1.71-2.34c-1-.45-2.27-.22-3.69.67q-3.75,2.23-9.2,10.39,2.28-6,5.36-14c.17-.52,0-.83-.44-.94s-.82.09-1.06.61q-7,18-7.52,20.45-.23.66.42.78a.28.28,0,0,0,.21.11.93.93,0,0,0,.77-.56,83.84,83.84,0,0,1,5.59-8.6q3.78-5.25,6.55-7a2.63,2.63,0,0,1,2.2-.45c.57.15.89.63,1,1.45a20,20,0,0,1,.11,2.57q.06,1.58.12,2.46a16.36,16.36,0,0,0,.35,2.18,3.53,3.53,0,0,0,1.09,2,4.09,4.09,0,0,0,2,1,11.45,11.45,0,0,0,5.91-.56A48,48,0,0,0,161,82.85q4.88-2.62,7.81-4.36T176.26,74c1.51-1,2.52-1.6,3-1.9s.63-.65.41-1.06a.72.72,0,0,0-1.07-.28m44.8,0c-.5.3-1.51,1-3,2q-22.6,14.19-28.43,13a3.13,3.13,0,0,1-1.42-.78,3.32,3.32,0,0,1-.83-1.62,8.94,8.94,0,0,1-.29-1.85c0-.52,0-1.26,0-2.23a15.65,15.65,0,0,0-.18-2.8,2.47,2.47,0,0,0-1.71-2.34c-1-.45-2.27-.22-3.69.67q-3.75,2.23-9.2,10.39,2.28-6,5.36-14c.17-.52,0-.83-.45-.94s-.81.09-1,.61q-7,18-7.52,20.45-.22.66.42.78a.27.27,0,0,0,.2.11.91.91,0,0,0,.77-.56A86,86,0,0,1,178,83q3.78-5.25,6.55-7a2.63,2.63,0,0,1,2.2-.45c.57.15.89.63,1,1.45a20,20,0,0,1,.11,2.57q.06,1.58.12,2.46a16.14,16.14,0,0,0,.34,2.18,3.6,3.6,0,0,0,1.1,2,4.09,4.09,0,0,0,2,1,11.45,11.45,0,0,0,5.91-.56,48,48,0,0,0,8.54-3.74q4.88-2.62,7.8-4.36T221.06,74c1.51-1,2.52-1.6,3-1.9s.63-.65.41-1.06a.72.72,0,0,0-1.07-.28m28.15,0a241.22,241.22,0,0,1-23.21,13.8Q216,91,213.69,89.16c-.66-.52-.41-1.9.73-4.13a14.09,14.09,0,0,1,1-1.9,1.28,1.28,0,0,0,1.3.22c1.48-.37,3.41-2.08,5.77-5.14s3.67-5.32,3.94-6.81c.14-.82-.07-1.3-.64-1.45q-1.83-.45-6,4.46a49.58,49.58,0,0,0-6.82,10.17c-1.41,2.91-1.52,4.84-.35,5.81a3.09,3.09,0,0,0,2.11.67c1.72,0,4.22-.69,7.52-2.07a97.1,97.1,0,0,0,9.52-4.58q4.58-2.5,9.9-5.75t7.4-4.58c1.38-.89,2.46-1.6,3.22-2.12.5-.3.62-.65.35-1.06a.63.63,0,0,0-1-.17m-30,6.42c-2,2.65-3.59,4.19-4.79,4.64a.4.4,0,0,1-.52-.23A52,52,0,0,1,221.16,75a17.34,17.34,0,0,1,3.68-3.46c-.19,1.12-1.29,3-3.28,5.64"></path></svg> 